<svg width="24" height="26" viewBox="0 0 24 26" fill="none" xmlns="http://www.w3.org/2000/svg">
<path d="M8.0963 18.8273H18.7135C18.9732 18.8273 19.1899 18.6106 19.1899 18.3509C19.1899 18.0912 18.9732 17.8745 18.7135 17.8745H8.09629C7.83659 17.8745 7.61987 18.0912 7.61987 18.3509C7.61987 18.6106 7.83661 18.8273 8.0963 18.8273Z" fill="#14142B"/>
<path d="M6.67331 17.441C6.73622 17.4415 6.79904 17.4457 6.86145 17.4536L6.7348 17.4366C6.80315 17.4464 6.87076 17.4608 6.93718 17.4797C6.97354 17.49 7.00917 17.5027 7.04454 17.516C7.08982 17.5341 7.07268 17.5267 6.99319 17.4938C7.0138 17.5027 7.03394 17.5126 7.05407 17.5225C7.11417 17.5521 7.17125 17.5874 7.22638 17.6253C7.32709 17.6945 7.14183 17.5538 7.23536 17.6323C7.26369 17.656 7.29047 17.6816 7.31681 17.7075C7.33789 17.7283 7.3578 17.7502 7.3775 17.7722C7.38728 17.7833 7.39688 17.7945 7.40629 17.806C7.46299 17.8736 7.33383 17.7087 7.38613 17.7798C7.4302 17.8397 7.46792 17.9041 7.50178 17.9702C7.51874 18.0033 7.56293 18.111 7.50001 17.9588C7.51442 17.9937 7.52654 18.0294 7.53802 18.0654C7.5614 18.1384 7.57676 18.2137 7.58769 18.2895L7.57067 18.1629C7.58661 18.2878 7.58661 18.4142 7.57067 18.5391L7.58769 18.4125C7.57785 18.4808 7.56346 18.5484 7.54459 18.6149C7.53426 18.6512 7.52155 18.6868 7.50826 18.7222C7.49023 18.7675 7.49763 18.7504 7.53048 18.6709C7.52157 18.6915 7.51166 18.7116 7.50176 18.7317C7.47221 18.7918 7.43688 18.8489 7.39899 18.904C7.32978 19.0048 7.47047 18.8195 7.39202 18.913C7.36825 18.9414 7.34273 18.9681 7.31679 18.9945C7.29605 19.0156 7.27416 19.0355 7.25212 19.0552C7.24102 19.0649 7.22976 19.0745 7.21835 19.0839C7.15076 19.1406 7.31559 19.0115 7.24448 19.0638C7.18456 19.1079 7.12019 19.1456 7.05405 19.1794C7.02094 19.1964 6.91332 19.2406 7.0655 19.1777C7.03064 19.1921 6.99486 19.2042 6.95894 19.2157C6.88591 19.2391 6.81057 19.2544 6.73479 19.2653L6.86143 19.2483C6.73651 19.2643 6.61008 19.2643 6.48516 19.2483L6.61182 19.2653C6.54348 19.2555 6.47587 19.2411 6.40945 19.2223C6.37309 19.2119 6.33746 19.1992 6.30209 19.1859C6.25683 19.1679 6.27394 19.1753 6.35344 19.2082C6.33285 19.1993 6.31269 19.1893 6.29256 19.1794C6.23248 19.1499 6.17538 19.1146 6.12025 19.0767C6.01954 19.0074 6.2048 19.1481 6.11127 19.0697C6.08294 19.0459 6.05615 19.0204 6.0298 18.9945C6.00872 18.9737 5.98881 18.9518 5.96911 18.9298C5.95933 18.9187 5.94973 18.9074 5.94032 18.896C5.88362 18.8284 6.01278 18.9933 5.96048 18.9222C5.91641 18.8622 5.87869 18.7978 5.84483 18.7317C5.82787 18.6986 5.78368 18.591 5.8466 18.7432C5.83219 18.7083 5.82007 18.6725 5.80859 18.6366C5.78521 18.5636 5.76985 18.4883 5.75892 18.4125L5.77594 18.5391C5.75998 18.4142 5.75998 18.2878 5.77594 18.1629L5.75892 18.2895C5.76876 18.2211 5.78315 18.1535 5.80202 18.0871C5.81235 18.0507 5.82506 18.0151 5.83835 17.9798C5.85638 17.9345 5.84898 17.9516 5.81613 18.0311C5.82504 18.0105 5.83495 17.9904 5.84485 17.9702C5.8744 17.9101 5.90973 17.853 5.94762 17.7979C6.01683 17.6972 5.87614 17.8825 5.95459 17.7889C5.97835 17.7606 6.00389 17.7338 6.02982 17.7075C6.05057 17.6864 6.07247 17.6665 6.09451 17.6468C6.10561 17.637 6.11687 17.6274 6.12828 17.618C6.19586 17.5613 6.03104 17.6905 6.10215 17.6382C6.16207 17.5941 6.22644 17.5564 6.29257 17.5225C6.32569 17.5056 6.4333 17.4614 6.28112 17.5243C6.316 17.5099 6.35177 17.4978 6.38769 17.4863C6.46071 17.4629 6.53606 17.4476 6.61184 17.4366L6.48518 17.4536C6.54759 17.4457 6.61041 17.4415 6.67331 17.441C6.93298 17.4388 7.14973 17.2259 7.14973 16.9646C7.14973 16.7065 6.93303 16.486 6.67331 16.4882C6.1855 16.4923 5.72445 16.6821 5.37189 17.0182C5.02132 17.3525 4.83152 17.8241 4.81127 18.3033C4.79072 18.7903 4.98936 19.2614 5.31018 19.6201C5.63385 19.982 6.1017 20.1744 6.57839 20.2107C7.0677 20.2479 7.54003 20.053 7.9091 19.7435C8.2825 19.4303 8.47681 18.967 8.52901 18.4928C8.55377 18.2678 8.52195 18.0277 8.45682 17.8121C8.38122 17.5617 8.2538 17.3528 8.09403 17.1495C7.79488 16.7688 7.33141 16.5606 6.86145 16.5008C6.79904 16.4929 6.73622 16.4887 6.67331 16.4882C6.4136 16.486 6.1969 16.7065 6.1969 16.9646C6.1969 17.2259 6.41365 17.4388 6.67331 17.441ZM16.1504 13.476H18.7134C18.9731 13.476 19.1898 13.2593 19.1898 12.9996C19.1898 12.7399 18.9731 12.5232 18.7134 12.5232H16.1504C15.8906 12.5232 15.6739 12.7399 15.6739 12.9996C15.6739 13.2593 15.8907 13.476 16.1504 13.476ZM5.28688 13.476H13.2407C13.5004 13.476 13.7171 13.2593 13.7171 12.9996C13.7171 12.7399 13.5004 12.5232 13.2407 12.5232H5.28688C5.02719 12.5232 4.81047 12.7399 4.81047 12.9996C4.81047 13.2593 5.02719 13.476 5.28688 13.476Z" fill="#14142B"/>
<path d="M14.7002 12.0894C14.7632 12.0899 14.8257 12.0941 14.8883 12.1021L14.7616 12.0851C14.83 12.0949 14.8976 12.1093 14.964 12.1282C15.0004 12.1385 15.036 12.1512 15.0714 12.1645C15.1167 12.1825 15.0995 12.1751 15.02 12.1423C15.0406 12.1512 15.0608 12.1611 15.0809 12.171C15.141 12.2005 15.1981 12.2359 15.2532 12.2738C15.3539 12.343 15.1687 12.2023 15.2622 12.2807C15.2905 12.3045 15.3173 12.33 15.3436 12.356C15.3647 12.3767 15.3846 12.3986 15.4043 12.4206C15.4141 12.4317 15.4237 12.443 15.4331 12.4544C15.4898 12.522 15.3606 12.3572 15.413 12.4283C15.457 12.4882 15.4947 12.5526 15.5286 12.6187C15.5456 12.6518 15.5898 12.7594 15.5268 12.6073C15.5413 12.6421 15.5534 12.6779 15.5648 12.7138C15.5882 12.7869 15.6036 12.8622 15.6145 12.938L15.5975 12.8113C15.6135 12.9362 15.6135 13.0627 15.5975 13.1876L15.6145 13.0609C15.6047 13.1293 15.5903 13.1969 15.5714 13.2633C15.5611 13.2997 15.5484 13.3353 15.5351 13.3707C15.5171 13.416 15.5245 13.3988 15.5573 13.3193C15.5484 13.3399 15.5385 13.3601 15.5286 13.3802C15.499 13.4403 15.4637 13.4974 15.4258 13.5525C15.3566 13.6532 15.4973 13.468 15.4189 13.5615C15.3951 13.5898 15.3696 13.6166 15.3436 13.643C15.3229 13.664 15.301 13.6839 15.2789 13.7036C15.2678 13.7134 15.2566 13.723 15.2452 13.7324C15.1776 13.7891 15.3424 13.66 15.2713 13.7123C15.2114 13.7563 15.147 13.794 15.0809 13.8279C15.0478 13.8449 14.9402 13.8891 15.0924 13.8261C15.0575 13.8406 15.0217 13.8527 14.9858 13.8641C14.9128 13.8875 14.8374 13.9029 14.7616 13.9138L14.8883 13.8968C14.7634 13.9128 14.6369 13.9128 14.512 13.8968L14.6387 13.9138C14.5703 13.904 14.5027 13.8896 14.4363 13.8707C14.3999 13.8604 14.3643 13.8477 14.3289 13.8344C14.2836 13.8164 14.3008 13.8238 14.3803 13.8566C14.3597 13.8477 14.3395 13.8378 14.3194 13.8279C14.2593 13.7983 14.2022 13.763 14.1471 13.7251C14.0464 13.6559 14.2316 13.7966 14.1381 13.7182C14.1098 13.6944 14.083 13.6689 14.0567 13.6429C14.0356 13.6222 14.0157 13.6003 13.996 13.5782C13.9862 13.5672 13.9766 13.5559 13.9672 13.5445C13.9105 13.4769 14.0397 13.6417 13.9874 13.5706C13.9433 13.5107 13.9056 13.4463 13.8717 13.3802C13.8547 13.3471 13.8106 13.2395 13.8735 13.3917C13.859 13.3568 13.8469 13.321 13.8355 13.2851C13.8121 13.2121 13.7967 13.1367 13.7858 13.0609L13.8028 13.1876C13.7869 13.0627 13.7869 12.9362 13.8028 12.8113L13.7858 12.938C13.7956 12.8696 13.81 12.802 13.8289 12.7356C13.8392 12.6992 13.8519 12.6636 13.8652 12.6282C13.8832 12.583 13.8758 12.6001 13.843 12.6796C13.8519 12.659 13.8618 12.6388 13.8717 12.6187C13.9013 12.5586 13.9366 12.5015 13.9745 12.4464C14.0437 12.3457 13.903 12.5309 13.9814 12.4374C14.0052 12.4091 14.0307 12.3823 14.0567 12.3559C14.0774 12.3349 14.0993 12.315 14.1214 12.2952C14.1325 12.2855 14.1437 12.2759 14.1551 12.2665C14.2227 12.2098 14.0579 12.3389 14.129 12.2866C14.1889 12.2426 14.2533 12.2048 14.3194 12.171C14.3525 12.154 14.4601 12.1098 14.3079 12.1727C14.3428 12.1583 14.3786 12.1462 14.4145 12.1347C14.4875 12.1114 14.5629 12.096 14.6387 12.0851L14.512 12.1021C14.5744 12.0942 14.6373 12.0899 14.7002 12.0894C14.9598 12.0872 15.1766 11.8744 15.1766 11.613C15.1766 11.355 14.9599 11.1344 14.7002 11.1366C14.2123 11.1407 13.7513 11.3305 13.3987 11.6667C13.0482 12.0009 12.8583 12.4725 12.8381 12.9518C12.8176 13.4387 13.0162 13.9099 13.337 14.2685C13.6607 14.6304 14.1286 14.8228 14.6052 14.8591C15.0946 14.8963 15.5669 14.7015 15.9359 14.3919C16.3093 14.0787 16.5036 13.6154 16.5559 13.1412C16.5806 12.9162 16.5488 12.6762 16.4837 12.4605C16.4081 12.2102 16.2806 12.0012 16.1209 11.7979C15.8217 11.4172 15.3583 11.209 14.8883 11.1493C14.8259 11.1413 14.7631 11.1371 14.7002 11.1366C14.4404 11.1344 14.2238 11.355 14.2238 11.613C14.2237 11.8744 14.4405 12.0872 14.7002 12.0894ZM11.0425 8.12446H18.7135C18.9732 8.12446 19.1899 7.90774 19.1899 7.64804C19.1899 7.38835 18.9732 7.17163 18.7135 7.17163H11.0425C10.7828 7.17163 10.5661 7.38835 10.5661 7.64804C10.5661 7.90774 10.7828 8.12446 11.0425 8.12446ZM5.28696 8.12446H8.13281C8.39251 8.12446 8.60923 7.90774 8.60923 7.64804C8.60923 7.38835 8.39251 7.17163 8.13281 7.17163H5.28696C5.02726 7.17163 4.81055 7.38835 4.81055 7.64804C4.81055 7.90774 5.02726 8.12446 5.28696 8.12446Z" fill="#14142B"/>
<path d="M9.59226 6.73775C9.65516 6.73825 9.71799 6.74248 9.78039 6.75041L9.65373 6.7334C9.72208 6.74323 9.78969 6.75763 9.85611 6.7765C9.89247 6.78683 9.9281 6.79954 9.96347 6.81282C10.0087 6.83086 9.99161 6.82346 9.91212 6.7906C9.93272 6.79952 9.95287 6.80942 9.973 6.81932C10.0331 6.84888 10.0902 6.8842 10.1453 6.92209C10.246 6.99131 10.0608 6.85061 10.1543 6.92907C10.1826 6.95282 10.2094 6.97836 10.2357 7.00429C10.2568 7.02505 10.2767 7.04695 10.2964 7.06898C10.3062 7.08008 10.3158 7.09134 10.3252 7.10276C10.3819 7.17034 10.2528 7.00552 10.3051 7.07662C10.3491 7.13655 10.3868 7.20091 10.4207 7.26705C10.4377 7.30016 10.4819 7.40778 10.4189 7.2556C10.4333 7.29046 10.4455 7.32624 10.4569 7.36216C10.4803 7.43519 10.4957 7.51053 10.5066 7.58631L10.4896 7.45966C10.5056 7.58457 10.5056 7.71101 10.4896 7.83592L10.5066 7.70926C10.4968 7.77761 10.4824 7.84522 10.4635 7.91164C10.4532 7.948 10.4405 7.98363 10.4272 8.019C10.4092 8.06428 10.4166 8.04714 10.4494 7.96765C10.4405 7.98825 10.4306 8.0084 10.4207 8.02853C10.3912 8.08862 10.3558 8.14571 10.3179 8.20084C10.2487 8.30155 10.3894 8.11629 10.311 8.20982C10.2872 8.23815 10.2617 8.26493 10.2357 8.29127C10.215 8.31235 10.1931 8.33226 10.1711 8.35196C10.16 8.36174 10.1487 8.37134 10.1373 8.38075C10.0697 8.43744 10.2345 8.30828 10.1634 8.36059C10.1035 8.40466 10.0391 8.44238 9.973 8.47624C9.9399 8.4932 9.83227 8.53739 9.98445 8.47447C9.94959 8.48888 9.9138 8.50099 9.87789 8.51248C9.80486 8.53586 9.72952 8.55122 9.65373 8.56214L9.78039 8.54513C9.65548 8.56109 9.52904 8.56109 9.40413 8.54513L9.53078 8.56214C9.46244 8.55231 9.39483 8.53792 9.32841 8.51905C9.29205 8.50872 9.25642 8.49601 9.22105 8.48272C9.17579 8.46468 9.19291 8.47209 9.2724 8.50494C9.25181 8.49603 9.23165 8.48612 9.21152 8.47622C9.15144 8.44667 9.09434 8.41134 9.03921 8.37345C8.9385 8.30423 9.12376 8.44493 9.03023 8.36647C9.0019 8.34271 8.97512 8.31718 8.94876 8.29125C8.92768 8.27051 8.90777 8.24861 8.88807 8.22658C8.87829 8.21548 8.86869 8.20422 8.85928 8.19281C8.80259 8.12522 8.93175 8.29004 8.87944 8.21894C8.83537 8.15901 8.79765 8.09465 8.76379 8.02851C8.74683 7.99542 8.70264 7.88778 8.76556 8.03996C8.75115 8.0051 8.73904 7.96932 8.72755 7.9334C8.70417 7.86037 8.68881 7.78503 8.67789 7.70925L8.6949 7.8359C8.67896 7.71099 8.67896 7.58455 8.6949 7.45964L8.67789 7.5863C8.68772 7.51795 8.70212 7.45034 8.72098 7.38392C8.73131 7.34756 8.74402 7.31193 8.75731 7.27656C8.77535 7.2313 8.76794 7.24842 8.73509 7.32791C8.74401 7.30732 8.75391 7.28716 8.76381 7.26703C8.79337 7.20695 8.82869 7.14985 8.86658 7.09472C8.9358 6.99401 8.7951 7.17927 8.87356 7.08574C8.89731 7.05741 8.92285 7.03063 8.94878 7.00427C8.96954 6.98319 8.99143 6.96329 9.01347 6.94358C9.02457 6.9338 9.03583 6.9242 9.04724 6.91479C9.11482 6.8581 8.95 6.98726 9.02111 6.93496C9.08103 6.89089 9.1454 6.85317 9.21154 6.81931C9.24465 6.80234 9.35227 6.75816 9.20009 6.82108C9.23495 6.80666 9.27073 6.79455 9.30665 6.78306C9.37968 6.75969 9.45502 6.74432 9.5308 6.7334L9.40414 6.75041C9.46654 6.74248 9.52936 6.73825 9.59226 6.73775C9.85192 6.73556 10.0687 6.52271 10.0687 6.26134C10.0687 6.0033 9.85197 5.78273 9.59226 5.78493C9.10445 5.78905 8.6434 5.97885 8.29083 6.31499C7.94026 6.64923 7.75046 7.12088 7.73022 7.60011C7.70966 8.08706 7.90831 8.5582 8.22912 8.91687C8.55279 9.27874 9.02065 9.47117 9.49733 9.50743C9.98664 9.54466 10.459 9.34981 10.828 9.04024C11.2014 8.72705 11.3958 8.26376 11.448 7.78954C11.4727 7.56459 11.4409 7.32451 11.3758 7.10885C11.3002 6.85853 11.1727 6.64953 11.013 6.44624C10.7138 6.06557 10.2504 5.85733 9.78039 5.79759C9.71798 5.78967 9.65516 5.78544 9.59226 5.78493C9.33255 5.78273 9.11585 6.0033 9.11585 6.26134C9.11585 6.52269 9.3326 6.73556 9.59226 6.73775Z" fill="#14142B"/>
</svg>
