<svg width="331" height="246" viewBox="0 0 331 246" fill="none" xmlns="http://www.w3.org/2000/svg">
<g filter="url(#filter0_d_8835_99865)">
<rect x="30" y="14" width="271" height="186" rx="8" fill="white" shape-rendering="crispEdges"/>
<path opacity="0.4" d="M59.488 54.098C58.5827 54.098 57.7473 53.888 56.982 53.468C56.226 53.0387 55.624 52.446 55.176 51.69C54.7373 50.9247 54.518 50.066 54.518 49.114C54.518 48.162 54.7373 47.308 55.176 46.552C55.624 45.796 56.226 45.208 56.982 44.788C57.7473 44.3587 58.5827 44.144 59.488 44.144C60.4027 44.144 61.238 44.3587 61.994 44.788C62.7593 45.208 63.3613 45.796 63.8 46.552C64.2387 47.308 64.458 48.162 64.458 49.114C64.458 50.066 64.2387 50.9247 63.8 51.69C63.3613 52.446 62.7593 53.0387 61.994 53.468C61.238 53.888 60.4027 54.098 59.488 54.098ZM59.488 52.712C60.132 52.712 60.706 52.5673 61.21 52.278C61.714 51.9793 62.106 51.5593 62.386 51.018C62.6753 50.4673 62.82 49.8327 62.82 49.114C62.82 48.3953 62.6753 47.7653 62.386 47.224C62.106 46.6827 61.714 46.2673 61.21 45.978C60.706 45.6887 60.132 45.544 59.488 45.544C58.844 45.544 58.27 45.6887 57.766 45.978C57.262 46.2673 56.8653 46.6827 56.576 47.224C56.296 47.7653 56.156 48.3953 56.156 49.114C56.156 49.8327 56.296 50.4673 56.576 51.018C56.8653 51.5593 57.262 51.9793 57.766 52.278C58.27 52.5673 58.844 52.712 59.488 52.712ZM67.8745 47.42C68.1452 47.0653 68.5138 46.7667 68.9805 46.524C69.4472 46.2813 69.9745 46.16 70.5625 46.16C71.2345 46.16 71.8458 46.328 72.3965 46.664C72.9565 46.9907 73.3952 47.4527 73.7125 48.05C74.0298 48.6473 74.1885 49.3333 74.1885 50.108C74.1885 50.8827 74.0298 51.578 73.7125 52.194C73.3952 52.8007 72.9565 53.2767 72.3965 53.622C71.8458 53.958 71.2345 54.126 70.5625 54.126C69.9745 54.126 69.4518 54.0093 68.9945 53.776C68.5372 53.5333 68.1638 53.2347 67.8745 52.88V57.668H66.2785V46.286H67.8745V47.42ZM72.5645 50.108C72.5645 49.576 72.4525 49.1187 72.2285 48.736C72.0138 48.344 71.7245 48.05 71.3605 47.854C71.0058 47.6487 70.6232 47.546 70.2125 47.546C69.8112 47.546 69.4285 47.6487 69.0645 47.854C68.7098 48.0593 68.4205 48.358 68.1965 48.75C67.9818 49.142 67.8745 49.604 67.8745 50.136C67.8745 50.668 67.9818 51.1347 68.1965 51.536C68.4205 51.928 68.7098 52.2267 69.0645 52.432C69.4285 52.6373 69.8112 52.74 70.2125 52.74C70.6232 52.74 71.0058 52.6373 71.3605 52.432C71.7245 52.2173 72.0138 51.9093 72.2285 51.508C72.4525 51.1067 72.5645 50.64 72.5645 50.108ZM77.8788 47.588V51.858C77.8788 52.1473 77.9441 52.3573 78.0748 52.488C78.2148 52.6093 78.4481 52.67 78.7748 52.67H79.7548V54H78.4948C77.7761 54 77.2255 53.832 76.8428 53.496C76.4601 53.16 76.2688 52.614 76.2688 51.858V47.588H75.3588V46.286H76.2688V44.368H77.8788V46.286H79.7548V47.588H77.8788ZM82.2878 45.264C81.9984 45.264 81.7558 45.166 81.5598 44.97C81.3638 44.774 81.2658 44.5313 81.2658 44.242C81.2658 43.9527 81.3638 43.71 81.5598 43.514C81.7558 43.318 81.9984 43.22 82.2878 43.22C82.5678 43.22 82.8058 43.318 83.0018 43.514C83.1978 43.71 83.2958 43.9527 83.2958 44.242C83.2958 44.5313 83.1978 44.774 83.0018 44.97C82.8058 45.166 82.5678 45.264 82.2878 45.264ZM83.0718 46.286V54H81.4758V46.286H83.0718ZM88.7632 54.126C88.0352 54.126 87.3772 53.9627 86.7892 53.636C86.2012 53.3 85.7392 52.8333 85.4032 52.236C85.0672 51.6293 84.8992 50.9293 84.8992 50.136C84.8992 49.352 85.0719 48.6567 85.4172 48.05C85.7625 47.4433 86.2339 46.9767 86.8312 46.65C87.4285 46.3233 88.0959 46.16 88.8332 46.16C89.5705 46.16 90.2379 46.3233 90.8352 46.65C91.4325 46.9767 91.9039 47.4433 92.2492 48.05C92.5945 48.6567 92.7672 49.352 92.7672 50.136C92.7672 50.92 92.5899 51.6153 92.2352 52.222C91.8805 52.8287 91.3952 53.3 90.7792 53.636C90.1725 53.9627 89.5005 54.126 88.7632 54.126ZM88.7632 52.74C89.1739 52.74 89.5565 52.642 89.9112 52.446C90.2752 52.25 90.5692 51.956 90.7932 51.564C91.0172 51.172 91.1292 50.696 91.1292 50.136C91.1292 49.576 91.0219 49.1047 90.8072 48.722C90.5925 48.33 90.3079 48.036 89.9532 47.84C89.5985 47.644 89.2159 47.546 88.8052 47.546C88.3945 47.546 88.0119 47.644 87.6572 47.84C87.3119 48.036 87.0365 48.33 86.8312 48.722C86.6259 49.1047 86.5232 49.576 86.5232 50.136C86.5232 50.9667 86.7332 51.6107 87.1532 52.068C87.5825 52.516 88.1192 52.74 88.7632 52.74ZM98.4869 46.16C99.0936 46.16 99.6349 46.286 100.111 46.538C100.596 46.79 100.974 47.1633 101.245 47.658C101.516 48.1527 101.651 48.75 101.651 49.45V54H100.069V49.688C100.069 48.9973 99.8963 48.47 99.5509 48.106C99.2056 47.7327 98.7343 47.546 98.1369 47.546C97.5396 47.546 97.0636 47.7327 96.7089 48.106C96.3636 48.47 96.1909 48.9973 96.1909 49.688V54H94.5949V46.286H96.1909V47.168C96.4523 46.8507 96.7836 46.6033 97.1849 46.426C97.5956 46.2487 98.0296 46.16 98.4869 46.16ZM106.737 54.126C106.13 54.126 105.584 54.0187 105.099 53.804C104.623 53.58 104.245 53.2813 103.965 52.908C103.685 52.5253 103.535 52.1007 103.517 51.634H105.169C105.197 51.9607 105.351 52.236 105.631 52.46C105.92 52.6747 106.279 52.782 106.709 52.782C107.157 52.782 107.502 52.698 107.745 52.53C107.997 52.3527 108.123 52.1287 108.123 51.858C108.123 51.5687 107.983 51.354 107.703 51.214C107.432 51.074 106.998 50.92 106.401 50.752C105.822 50.5933 105.351 50.4393 104.987 50.29C104.623 50.1407 104.305 49.912 104.035 49.604C103.773 49.296 103.643 48.89 103.643 48.386C103.643 47.9753 103.764 47.602 104.007 47.266C104.249 46.9207 104.595 46.65 105.043 46.454C105.5 46.258 106.023 46.16 106.611 46.16C107.488 46.16 108.193 46.384 108.725 46.832C109.266 47.2707 109.555 47.8727 109.593 48.638H107.997C107.969 48.2927 107.829 48.0173 107.577 47.812C107.325 47.6067 106.984 47.504 106.555 47.504C106.135 47.504 105.813 47.5833 105.589 47.742C105.365 47.9007 105.253 48.1107 105.253 48.372C105.253 48.5773 105.327 48.75 105.477 48.89C105.626 49.03 105.808 49.142 106.023 49.226C106.237 49.3007 106.555 49.3987 106.975 49.52C107.535 49.6693 107.992 49.8233 108.347 49.982C108.711 50.1313 109.023 50.3553 109.285 50.654C109.546 50.9527 109.681 51.3493 109.691 51.844C109.691 52.2827 109.569 52.6747 109.327 53.02C109.084 53.3653 108.739 53.636 108.291 53.832C107.852 54.028 107.334 54.126 106.737 54.126Z" fill="#04151F"/>
<path d="M277 75H54V77H277V75Z" fill="#D9DBE9" mask="url(#path-2-inside-1_8835_99865)"/>
<g opacity="0.7">
<path d="M72.1449 107.487H72.1445C72.1445 107.484 72.1436 107.486 72.1436 107.486C72.1401 107.482 72.1367 107.479 72.1336 107.475L67.7858 103.127C67.7045 103.046 67.594 103 67.4784 103H66.6284C66.6158 103 66.6019 103 66.5893 103H57.0436C56.3245 103 55.7393 103.585 55.7393 104.304V121.696C55.7393 122.415 56.324 123 57.0432 123H70.9566C71.6758 123 72.261 122.415 72.261 121.696V107.783C72.261 107.668 72.2167 107.564 72.1449 107.487ZM71.3914 121.696C71.3914 121.935 71.1966 122.13 70.9566 122.13H57.0432C56.8036 122.13 56.6088 121.936 56.6088 121.696V104.304C56.6088 104.065 56.804 103.87 57.0436 103.87H66.174V108.652C66.174 108.892 66.3684 109.087 66.6088 109.087H71.3914V121.696ZM71.3914 108.217H67.0436V103.87H67.2984L71.3914 107.963V108.217Z" fill="#6E7191"/>
<path d="M69.2176 119.522H64.0002C63.7602 119.522 63.5654 119.717 63.5654 119.957C63.5654 120.197 63.7602 120.391 64.0002 120.391H69.2176C69.458 120.391 69.6524 120.197 69.6524 119.957C69.6524 119.717 69.458 119.522 69.2176 119.522Z" fill="#6E7191"/>
<path d="M58.7827 106.478H64.0001C64.2401 106.478 64.4349 106.283 64.4349 106.043C64.4349 105.803 64.2401 105.609 64.0001 105.609H58.7827C58.5427 105.609 58.3479 105.803 58.3479 106.043C58.3479 106.283 58.5427 106.478 58.7827 106.478Z" fill="#6E7191"/>
<path d="M63.7813 117.563C66.4175 117.563 68.5625 115.417 68.5625 112.781C68.5625 110.145 66.4175 108 63.7813 108C61.145 108 59 110.145 59 112.781C59 115.417 61.145 117.563 63.7813 117.563ZM63.7813 108.869C65.938 108.869 67.6932 110.624 67.6932 112.781C67.6932 114.938 65.938 116.693 63.7813 116.693C61.6245 116.693 59.8693 114.938 59.8693 112.781C59.8693 110.624 61.6245 108.869 63.7813 108.869Z" fill="#6E7191"/>
<path d="M62.0418 113.215H63.3458V114.519C63.3458 114.759 63.5405 114.954 63.7805 114.954C64.0204 114.954 64.2151 114.759 64.2151 114.519V113.215H65.5191C65.759 113.215 65.9538 113.02 65.9538 112.78C65.9538 112.541 65.759 112.346 65.5191 112.346H64.2151V111.042C64.2151 110.802 64.0204 110.607 63.7805 110.607C63.5405 110.607 63.3458 110.802 63.3458 111.042V112.346H62.0418C61.8019 112.346 61.6072 112.541 61.6072 112.78C61.6072 113.02 61.8019 113.215 62.0418 113.215Z" fill="#6E7191"/>
</g>
<path d="M98.75 118H97.476L92.352 110.23V118H91.078V108.228H92.352L97.476 115.984V108.228H98.75V118ZM108.172 113.87C108.172 114.113 108.158 114.369 108.13 114.64H101.998C102.044 115.396 102.301 115.989 102.768 116.418C103.244 116.838 103.818 117.048 104.49 117.048C105.04 117.048 105.498 116.922 105.862 116.67C106.235 116.409 106.496 116.063 106.646 115.634H108.018C107.812 116.371 107.402 116.973 106.786 117.44C106.17 117.897 105.404 118.126 104.49 118.126C103.762 118.126 103.108 117.963 102.53 117.636C101.96 117.309 101.512 116.847 101.186 116.25C100.859 115.643 100.696 114.943 100.696 114.15C100.696 113.357 100.854 112.661 101.172 112.064C101.489 111.467 101.932 111.009 102.502 110.692C103.08 110.365 103.743 110.202 104.49 110.202C105.218 110.202 105.862 110.361 106.422 110.678C106.982 110.995 107.411 111.434 107.71 111.994C108.018 112.545 108.172 113.17 108.172 113.87ZM106.856 113.604C106.856 113.119 106.748 112.703 106.534 112.358C106.319 112.003 106.025 111.737 105.652 111.56C105.288 111.373 104.882 111.28 104.434 111.28C103.79 111.28 103.239 111.485 102.782 111.896C102.334 112.307 102.077 112.876 102.012 113.604H106.856ZM120.323 110.328L117.929 118H116.613L114.765 111.91L112.917 118H111.601L109.193 110.328H110.495L112.259 116.768L114.163 110.328H115.465L117.327 116.782L119.063 110.328H120.323ZM128.858 108.242C129.922 108.242 130.842 108.443 131.616 108.844C132.4 109.236 132.998 109.801 133.408 110.538C133.828 111.275 134.038 112.143 134.038 113.142C134.038 114.141 133.828 115.009 133.408 115.746C132.998 116.474 132.4 117.034 131.616 117.426C130.842 117.809 129.922 118 128.858 118H125.82V108.242H128.858ZM128.858 116.95C130.118 116.95 131.08 116.619 131.742 115.956C132.405 115.284 132.736 114.346 132.736 113.142C132.736 111.929 132.4 110.981 131.728 110.3C131.066 109.619 130.109 109.278 128.858 109.278H127.094V116.95H128.858ZM139.315 118.126C138.596 118.126 137.943 117.963 137.355 117.636C136.776 117.309 136.319 116.847 135.983 116.25C135.656 115.643 135.493 114.943 135.493 114.15C135.493 113.366 135.661 112.675 135.997 112.078C136.342 111.471 136.809 111.009 137.397 110.692C137.985 110.365 138.643 110.202 139.371 110.202C140.099 110.202 140.757 110.365 141.345 110.692C141.933 111.009 142.395 111.467 142.731 112.064C143.076 112.661 143.249 113.357 143.249 114.15C143.249 114.943 143.071 115.643 142.717 116.25C142.371 116.847 141.9 117.309 141.303 117.636C140.705 117.963 140.043 118.126 139.315 118.126ZM139.315 117.006C139.772 117.006 140.201 116.899 140.603 116.684C141.004 116.469 141.326 116.147 141.569 115.718C141.821 115.289 141.947 114.766 141.947 114.15C141.947 113.534 141.825 113.011 141.583 112.582C141.34 112.153 141.023 111.835 140.631 111.63C140.239 111.415 139.814 111.308 139.357 111.308C138.89 111.308 138.461 111.415 138.069 111.63C137.686 111.835 137.378 112.153 137.145 112.582C136.911 113.011 136.795 113.534 136.795 114.15C136.795 114.775 136.907 115.303 137.131 115.732C137.364 116.161 137.672 116.483 138.055 116.698C138.437 116.903 138.857 117.006 139.315 117.006ZM144.698 114.15C144.698 113.357 144.856 112.666 145.174 112.078C145.491 111.481 145.93 111.019 146.49 110.692C147.059 110.365 147.708 110.202 148.436 110.202C149.378 110.202 150.153 110.431 150.76 110.888C151.376 111.345 151.782 111.98 151.978 112.792H150.606C150.475 112.325 150.218 111.957 149.836 111.686C149.462 111.415 148.996 111.28 148.436 111.28C147.708 111.28 147.12 111.532 146.672 112.036C146.224 112.531 146 113.235 146 114.15C146 115.074 146.224 115.788 146.672 116.292C147.12 116.796 147.708 117.048 148.436 117.048C148.996 117.048 149.462 116.917 149.836 116.656C150.209 116.395 150.466 116.021 150.606 115.536H151.978C151.772 116.32 151.362 116.95 150.746 117.426C150.13 117.893 149.36 118.126 148.436 118.126C147.708 118.126 147.059 117.963 146.49 117.636C145.93 117.309 145.491 116.847 145.174 116.25C144.856 115.653 144.698 114.953 144.698 114.15ZM160.732 110.328V118H159.458V116.866C159.215 117.258 158.874 117.566 158.436 117.79C158.006 118.005 157.53 118.112 157.008 118.112C156.41 118.112 155.874 117.991 155.398 117.748C154.922 117.496 154.544 117.123 154.264 116.628C153.993 116.133 153.858 115.531 153.858 114.822V110.328H155.118V114.654C155.118 115.41 155.309 115.993 155.692 116.404C156.074 116.805 156.597 117.006 157.26 117.006C157.941 117.006 158.478 116.796 158.87 116.376C159.262 115.956 159.458 115.345 159.458 114.542V110.328H160.732ZM172.359 110.188C172.956 110.188 173.488 110.314 173.955 110.566C174.421 110.809 174.79 111.177 175.061 111.672C175.331 112.167 175.467 112.769 175.467 113.478V118H174.207V113.66C174.207 112.895 174.015 112.311 173.633 111.91C173.259 111.499 172.751 111.294 172.107 111.294C171.444 111.294 170.917 111.509 170.525 111.938C170.133 112.358 169.937 112.969 169.937 113.772V118H168.677V113.66C168.677 112.895 168.485 112.311 168.103 111.91C167.729 111.499 167.221 111.294 166.577 111.294C165.914 111.294 165.387 111.509 164.995 111.938C164.603 112.358 164.407 112.969 164.407 113.772V118H163.133V110.328H164.407V111.434C164.659 111.033 164.995 110.725 165.415 110.51C165.844 110.295 166.315 110.188 166.829 110.188C167.473 110.188 168.042 110.333 168.537 110.622C169.031 110.911 169.4 111.336 169.643 111.896C169.857 111.355 170.212 110.935 170.707 110.636C171.201 110.337 171.752 110.188 172.359 110.188ZM184.807 113.87C184.807 114.113 184.793 114.369 184.765 114.64H178.633C178.679 115.396 178.936 115.989 179.403 116.418C179.879 116.838 180.453 117.048 181.125 117.048C181.675 117.048 182.133 116.922 182.497 116.67C182.87 116.409 183.131 116.063 183.281 115.634H184.653C184.447 116.371 184.037 116.973 183.421 117.44C182.805 117.897 182.039 118.126 181.125 118.126C180.397 118.126 179.743 117.963 179.165 117.636C178.595 117.309 178.147 116.847 177.821 116.25C177.494 115.643 177.331 114.943 177.331 114.15C177.331 113.357 177.489 112.661 177.807 112.064C178.124 111.467 178.567 111.009 179.137 110.692C179.715 110.365 180.378 110.202 181.125 110.202C181.853 110.202 182.497 110.361 183.057 110.678C183.617 110.995 184.046 111.434 184.345 111.994C184.653 112.545 184.807 113.17 184.807 113.87ZM183.491 113.604C183.491 113.119 183.383 112.703 183.169 112.358C182.954 112.003 182.66 111.737 182.287 111.56C181.923 111.373 181.517 111.28 181.069 111.28C180.425 111.28 179.874 111.485 179.417 111.896C178.969 112.307 178.712 112.876 178.647 113.604H183.491ZM190.476 110.188C191.409 110.188 192.165 110.473 192.744 111.042C193.323 111.602 193.612 112.414 193.612 113.478V118H192.352V113.66C192.352 112.895 192.161 112.311 191.778 111.91C191.395 111.499 190.873 111.294 190.21 111.294C189.538 111.294 189.001 111.504 188.6 111.924C188.208 112.344 188.012 112.955 188.012 113.758V118H186.738V110.328H188.012V111.42C188.264 111.028 188.605 110.725 189.034 110.51C189.473 110.295 189.953 110.188 190.476 110.188ZM197.497 111.378V115.9C197.497 116.273 197.577 116.539 197.735 116.698C197.894 116.847 198.169 116.922 198.561 116.922H199.499V118H198.351C197.642 118 197.11 117.837 196.755 117.51C196.401 117.183 196.223 116.647 196.223 115.9V111.378H195.229V110.328H196.223V108.396H197.497V110.328H199.499V111.378H197.497Z" fill="#4E4B66"/>
<g opacity="0.7">
<path d="M72.9966 151.856L71.627 150.502C71.6268 150.502 71.6267 150.502 71.6266 150.502C71.6264 150.502 71.6262 150.502 71.6261 150.501L70.2564 149.148C70.1476 149.04 70.0001 148.98 69.8461 148.98C69.6922 148.98 69.5447 149.04 69.4359 149.148L68.7587 149.817V146.407C68.7587 146.09 68.4989 145.833 68.1786 145.833H55.4134C55.093 145.833 54.8333 146.09 54.8333 146.407V163.593C54.8333 163.91 55.093 164.167 55.4134 164.167H68.1786C68.4989 164.167 68.7588 163.91 68.7588 163.593V156.855L72.9966 152.667C73.2232 152.443 73.2232 152.08 72.9966 151.856ZM67.5984 163.02H55.9936V146.98H67.5984V150.964L62.8042 155.702C62.7241 155.781 62.6692 155.882 62.6463 155.991L61.9334 159.404C61.8939 159.593 61.9534 159.789 62.0914 159.926C62.2013 160.034 62.3494 160.094 62.5016 160.094C62.5407 160.094 62.58 160.09 62.6189 160.082L66.0719 159.377C66.183 159.354 66.2847 159.3 66.3649 159.221L67.5984 158.002V163.02H67.5984ZM63.5652 157.265L64.7836 158.469L63.2481 158.782L63.5652 157.265ZM65.9547 158.005L64.035 156.107L69.8462 150.364L70.3958 150.907L66.8517 154.41C66.6251 154.634 66.6251 154.997 66.8517 155.221C66.9649 155.333 67.1135 155.389 67.2619 155.389C67.4104 155.389 67.5588 155.333 67.6722 155.221L71.2164 151.718L71.766 152.262L65.9547 158.005Z" fill="#6E7191"/>
<path d="M58.4379 149.987H64.4765C64.7852 149.987 65.0254 149.747 65.0254 149.438C65.0254 149.146 64.7852 148.889 64.4765 148.889H58.4379C58.1291 148.889 57.8889 149.146 57.8889 149.438C57.8889 149.747 58.1291 149.987 58.4379 149.987Z" fill="#6E7191"/>
<path d="M58.4379 152.024H64.4765C64.7852 152.024 65.0254 151.784 65.0254 151.475C65.0254 151.183 64.7852 150.926 64.4765 150.926H58.4379C58.1291 150.926 57.8889 151.183 57.8889 151.475C57.8889 151.784 58.1291 152.024 58.4379 152.024Z" fill="#6E7191"/>
<path d="M58.4379 154.061H64.4765C64.7852 154.061 65.0254 153.821 65.0254 153.512C65.0254 153.22 64.7852 152.963 64.4765 152.963H58.4379C58.1291 152.963 57.8889 153.22 57.8889 153.512C57.8889 153.821 58.1291 154.061 58.4379 154.061Z" fill="#6E7191"/>
</g>
<path d="M98.75 160H97.476L92.352 152.23V160H91.078V150.228H92.352L97.476 157.984V150.228H98.75V160ZM108.172 155.87C108.172 156.113 108.158 156.369 108.13 156.64H101.998C102.044 157.396 102.301 157.989 102.768 158.418C103.244 158.838 103.818 159.048 104.49 159.048C105.04 159.048 105.498 158.922 105.862 158.67C106.235 158.409 106.496 158.063 106.646 157.634H108.018C107.812 158.371 107.402 158.973 106.786 159.44C106.17 159.897 105.404 160.126 104.49 160.126C103.762 160.126 103.108 159.963 102.53 159.636C101.96 159.309 101.512 158.847 101.186 158.25C100.859 157.643 100.696 156.943 100.696 156.15C100.696 155.357 100.854 154.661 101.172 154.064C101.489 153.467 101.932 153.009 102.502 152.692C103.08 152.365 103.743 152.202 104.49 152.202C105.218 152.202 105.862 152.361 106.422 152.678C106.982 152.995 107.411 153.434 107.71 153.994C108.018 154.545 108.172 155.17 108.172 155.87ZM106.856 155.604C106.856 155.119 106.748 154.703 106.534 154.358C106.319 154.003 106.025 153.737 105.652 153.56C105.288 153.373 104.882 153.28 104.434 153.28C103.79 153.28 103.239 153.485 102.782 153.896C102.334 154.307 102.077 154.876 102.012 155.604H106.856ZM120.323 152.328L117.929 160H116.613L114.765 153.91L112.917 160H111.601L109.193 152.328H110.495L112.259 158.768L114.163 152.328H115.465L117.327 158.782L119.063 152.328H120.323ZM135.718 150.312V160H134.444V152.776L131.224 160H130.328L127.094 152.762V160H125.82V150.312H127.192L130.776 158.32L134.36 150.312H135.718ZM145.129 155.87C145.129 156.113 145.115 156.369 145.087 156.64H138.955C139.001 157.396 139.258 157.989 139.725 158.418C140.201 158.838 140.775 159.048 141.447 159.048C141.997 159.048 142.455 158.922 142.819 158.67C143.192 158.409 143.453 158.063 143.603 157.634H144.975C144.769 158.371 144.359 158.973 143.743 159.44C143.127 159.897 142.361 160.126 141.447 160.126C140.719 160.126 140.065 159.963 139.487 159.636C138.917 159.309 138.469 158.847 138.143 158.25C137.816 157.643 137.653 156.943 137.653 156.15C137.653 155.357 137.811 154.661 138.129 154.064C138.446 153.467 138.889 153.009 139.459 152.692C140.037 152.365 140.7 152.202 141.447 152.202C142.175 152.202 142.819 152.361 143.379 152.678C143.939 152.995 144.368 153.434 144.667 153.994C144.975 154.545 145.129 155.17 145.129 155.87ZM143.813 155.604C143.813 155.119 143.705 154.703 143.491 154.358C143.276 154.003 142.982 153.737 142.609 153.56C142.245 153.373 141.839 153.28 141.391 153.28C140.747 153.28 140.196 153.485 139.739 153.896C139.291 154.307 139.034 154.876 138.969 155.604H143.813ZM156.286 152.188C156.884 152.188 157.416 152.314 157.882 152.566C158.349 152.809 158.718 153.177 158.988 153.672C159.259 154.167 159.394 154.769 159.394 155.478V160H158.134V155.66C158.134 154.895 157.943 154.311 157.56 153.91C157.187 153.499 156.678 153.294 156.034 153.294C155.372 153.294 154.844 153.509 154.452 153.938C154.06 154.358 153.864 154.969 153.864 155.772V160H152.604V155.66C152.604 154.895 152.413 154.311 152.03 153.91C151.657 153.499 151.148 153.294 150.504 153.294C149.842 153.294 149.314 153.509 148.922 153.938C148.53 154.358 148.334 154.969 148.334 155.772V160H147.06V152.328H148.334V153.434C148.586 153.033 148.922 152.725 149.342 152.51C149.772 152.295 150.243 152.188 150.756 152.188C151.4 152.188 151.97 152.333 152.464 152.622C152.959 152.911 153.328 153.336 153.57 153.896C153.785 153.355 154.14 152.935 154.634 152.636C155.129 152.337 155.68 152.188 156.286 152.188ZM165.08 160.126C164.362 160.126 163.708 159.963 163.12 159.636C162.542 159.309 162.084 158.847 161.748 158.25C161.422 157.643 161.258 156.943 161.258 156.15C161.258 155.366 161.426 154.675 161.762 154.078C162.108 153.471 162.574 153.009 163.162 152.692C163.75 152.365 164.408 152.202 165.136 152.202C165.864 152.202 166.522 152.365 167.11 152.692C167.698 153.009 168.16 153.467 168.496 154.064C168.842 154.661 169.014 155.357 169.014 156.15C169.014 156.943 168.837 157.643 168.482 158.25C168.137 158.847 167.666 159.309 167.068 159.636C166.471 159.963 165.808 160.126 165.08 160.126ZM165.08 159.006C165.538 159.006 165.967 158.899 166.368 158.684C166.77 158.469 167.092 158.147 167.334 157.718C167.586 157.289 167.712 156.766 167.712 156.15C167.712 155.534 167.591 155.011 167.348 154.582C167.106 154.153 166.788 153.835 166.396 153.63C166.004 153.415 165.58 153.308 165.122 153.308C164.656 153.308 164.226 153.415 163.834 153.63C163.452 153.835 163.144 154.153 162.91 154.582C162.677 155.011 162.56 155.534 162.56 156.15C162.56 156.775 162.672 157.303 162.896 157.732C163.13 158.161 163.438 158.483 163.82 158.698C164.203 158.903 164.623 159.006 165.08 159.006Z" fill="#4E4B66"/>
</g>
<defs>
<filter id="filter0_d_8835_99865" x="0" y="0" width="331" height="246" filterUnits="userSpaceOnUse" color-interpolation-filters="sRGB">
<feFlood flood-opacity="0" result="BackgroundImageFix"/>
<feColorMatrix in="SourceAlpha" type="matrix" values="0 0 0 0 0 0 0 0 0 0 0 0 0 0 0 0 0 0 127 0" result="hardAlpha"/>
<feOffset dy="16"/>
<feGaussianBlur stdDeviation="15"/>
<feComposite in2="hardAlpha" operator="out"/>
<feColorMatrix type="matrix" values="0 0 0 0 0.360784 0 0 0 0 0.360784 0 0 0 0 0.360784 0 0 0 0.16 0"/>
<feBlend mode="normal" in2="BackgroundImageFix" result="effect1_dropShadow_8835_99865"/>
<feBlend mode="normal" in="SourceGraphic" in2="effect1_dropShadow_8835_99865" result="shape"/>
</filter>
</defs>
</svg>
