<svg width="926" height="56" viewBox="0 0 926 56" fill="none" xmlns="http://www.w3.org/2000/svg">
<rect width="926" height="56" fill="#F8F8FB"/>
<path d="M25.4506 30.4534L17.7492 30.5073M17.7492 30.5073L17.749 23M17.7492 30.5073L21.2126 26.8576C26.0043 21.8082 34.4208 23.4618 36.9459 29.9486" stroke="#6E7191" stroke-width="2" stroke-linecap="round" stroke-linejoin="round"/>
<path d="M62.55 30.4534L70.2514 30.5073M70.2514 30.5073L70.2516 23M70.2514 30.5073L66.788 26.8576C61.9963 21.8082 53.5799 23.4618 51.0547 29.9486" stroke="#6E7191" stroke-width="2" stroke-linecap="round" stroke-linejoin="round"/>
<path d="M88.674 11.7976C88.7161 11.6557 88.7584 11.5591 88.792 11.5H313.208C313.242 11.5591 313.284 11.6557 313.326 11.7976C313.429 12.1445 313.5 12.6534 313.5 13.2368V42.7632C313.5 43.3466 313.429 43.8555 313.326 44.2024C313.284 44.3443 313.242 44.4409 313.208 44.5H88.792C88.7584 44.4409 88.7161 44.3443 88.674 44.2024C88.5709 43.8555 88.5 43.3466 88.5 42.7632V13.2368C88.5 12.6534 88.5709 12.1445 88.674 11.7976ZM313.168 11.4416C313.168 11.4414 313.169 11.4428 313.172 11.4462C313.169 11.4435 313.168 11.4417 313.168 11.4416ZM313.168 44.5584C313.168 44.5582 313.169 44.5565 313.172 44.5537C313.169 44.5573 313.168 44.5586 313.168 44.5584ZM88.8323 44.5584C88.8323 44.5586 88.8308 44.5572 88.8279 44.5537C88.8309 44.5565 88.8324 44.5583 88.8323 44.5584ZM88.8279 11.4463C88.8308 11.4428 88.8323 11.4414 88.8323 11.4416C88.8324 11.4417 88.8309 11.4435 88.8279 11.4463Z" fill="white" stroke="#EFF3FB"/>
<path d="M109.767 27.6313C109.767 29.3452 109.332 30.6929 108.463 31.6743C107.599 32.6558 106.395 33.1465 104.852 33.1465C103.275 33.1465 102.057 32.6655 101.197 31.7036C100.343 30.7368 99.9155 29.3745 99.9155 27.6167C99.9155 25.8735 100.345 24.5234 101.205 23.5664C102.064 22.6045 103.285 22.1235 104.867 22.1235C106.405 22.1235 107.606 22.6118 108.47 23.5884C109.334 24.5649 109.767 25.9126 109.767 27.6313ZM101.234 27.6313C101.234 29.0815 101.542 30.1826 102.157 30.9346C102.777 31.6816 103.675 32.0552 104.852 32.0552C106.039 32.0552 106.935 31.6816 107.54 30.9346C108.146 30.1875 108.448 29.0864 108.448 27.6313C108.448 26.1909 108.146 25.0996 107.54 24.3574C106.939 23.6104 106.048 23.2368 104.867 23.2368C103.68 23.2368 102.777 23.6128 102.157 24.3647C101.542 25.1118 101.234 26.2007 101.234 27.6313ZM115.714 33.1465C115.191 33.1465 114.713 33.0513 114.278 32.8608C113.849 32.6655 113.487 32.3677 113.194 31.9673H113.106C113.165 32.436 113.194 32.8804 113.194 33.3003V36.6035H111.979V24.9727H112.967L113.136 26.0713H113.194C113.507 25.6318 113.871 25.3145 114.286 25.1191C114.701 24.9238 115.177 24.8262 115.714 24.8262C116.778 24.8262 117.599 25.1899 118.175 25.9175C118.756 26.645 119.046 27.6655 119.046 28.979C119.046 30.2974 118.751 31.3228 118.16 32.0552C117.574 32.7827 116.759 33.1465 115.714 33.1465ZM115.538 25.8589C114.718 25.8589 114.125 26.0859 113.758 26.54C113.392 26.9941 113.204 27.7168 113.194 28.708V28.979C113.194 30.1069 113.382 30.915 113.758 31.4033C114.134 31.8867 114.737 32.1284 115.567 32.1284C116.261 32.1284 116.803 31.8477 117.193 31.2861C117.589 30.7246 117.787 29.9507 117.787 28.9644C117.787 27.9634 117.589 27.1968 117.193 26.6646C116.803 26.1274 116.251 25.8589 115.538 25.8589ZM124.569 33.1465C123.382 33.1465 122.445 32.7852 121.756 32.0625C121.073 31.3398 120.731 30.3364 120.731 29.0522C120.731 27.7583 121.048 26.7305 121.683 25.9688C122.323 25.207 123.18 24.8262 124.254 24.8262C125.26 24.8262 126.056 25.1582 126.642 25.8223C127.228 26.4814 127.521 27.353 127.521 28.437V29.2061H121.991C122.015 30.1484 122.252 30.8638 122.701 31.3521C123.155 31.8403 123.792 32.0845 124.613 32.0845C125.477 32.0845 126.332 31.9038 127.176 31.5425V32.6265C126.747 32.812 126.339 32.9438 125.953 33.022C125.572 33.105 125.111 33.1465 124.569 33.1465ZM124.239 25.8442C123.595 25.8442 123.08 26.0542 122.694 26.4741C122.313 26.894 122.088 27.4751 122.02 28.2173H126.217C126.217 27.4507 126.046 26.8647 125.704 26.4595C125.362 26.0493 124.874 25.8442 124.239 25.8442ZM135.094 33V27.8071C135.094 27.1528 134.945 26.6646 134.647 26.3423C134.349 26.02 133.883 25.8589 133.248 25.8589C132.408 25.8589 131.793 26.0859 131.402 26.54C131.012 26.9941 130.816 27.7437 130.816 28.7886V33H129.601V24.9727H130.589L130.787 26.0713H130.846C131.095 25.6758 131.444 25.3706 131.893 25.1558C132.342 24.936 132.843 24.8262 133.395 24.8262C134.361 24.8262 135.089 25.0605 135.577 25.5293C136.065 25.9932 136.31 26.7378 136.31 27.7632V33H135.094ZM148.937 30.1509C148.937 31.0933 148.595 31.8281 147.911 32.3555C147.228 32.8828 146.3 33.1465 145.128 33.1465C143.858 33.1465 142.882 32.9829 142.198 32.6558V31.4546C142.638 31.6401 143.116 31.7866 143.634 31.894C144.151 32.0015 144.664 32.0552 145.172 32.0552C146.002 32.0552 146.627 31.8989 147.047 31.5864C147.467 31.269 147.677 30.8296 147.677 30.2681C147.677 29.897 147.601 29.5942 147.45 29.3599C147.303 29.1206 147.054 28.9009 146.703 28.7007C146.356 28.5005 145.826 28.2734 145.113 28.0195C144.117 27.6631 143.404 27.2407 142.975 26.7524C142.55 26.2642 142.337 25.627 142.337 24.8408C142.337 24.0156 142.647 23.3589 143.268 22.8706C143.888 22.3823 144.708 22.1382 145.729 22.1382C146.793 22.1382 147.772 22.3335 148.666 22.7241L148.277 23.8081C147.394 23.437 146.534 23.2515 145.699 23.2515C145.04 23.2515 144.525 23.3931 144.154 23.6763C143.783 23.9595 143.597 24.3525 143.597 24.8555C143.597 25.2266 143.666 25.5317 143.802 25.771C143.939 26.0054 144.168 26.2227 144.491 26.4229C144.818 26.6182 145.316 26.8354 145.985 27.0747C147.108 27.4751 147.879 27.9048 148.299 28.3638C148.724 28.8228 148.937 29.4185 148.937 30.1509ZM155.88 33L155.638 31.8574H155.58C155.179 32.3604 154.779 32.7021 154.378 32.8828C153.983 33.0586 153.487 33.1465 152.892 33.1465C152.096 33.1465 151.471 32.9414 151.017 32.5312C150.567 32.1211 150.343 31.5376 150.343 30.7808C150.343 29.1597 151.639 28.3101 154.232 28.2319L155.594 28.188V27.6899C155.594 27.0601 155.458 26.5962 155.184 26.2983C154.916 25.9956 154.483 25.8442 153.888 25.8442C153.219 25.8442 152.462 26.0493 151.617 26.4595L151.244 25.5293C151.639 25.3145 152.071 25.146 152.54 25.0239C153.014 24.9019 153.487 24.8408 153.961 24.8408C154.918 24.8408 155.626 25.0532 156.085 25.478C156.549 25.9028 156.781 26.584 156.781 27.5215V33H155.88ZM153.133 32.1431C153.89 32.1431 154.483 31.9355 154.913 31.5205C155.348 31.1055 155.565 30.5244 155.565 29.7773V29.0522L154.349 29.1035C153.382 29.1377 152.684 29.2891 152.254 29.5576C151.83 29.8213 151.617 30.2339 151.617 30.7954C151.617 31.2349 151.749 31.5693 152.013 31.7988C152.281 32.0283 152.655 32.1431 153.133 32.1431ZM164.786 33V27.8071C164.786 27.1528 164.637 26.6646 164.339 26.3423C164.042 26.02 163.575 25.8589 162.94 25.8589C162.101 25.8589 161.485 26.0859 161.095 26.54C160.704 26.9941 160.509 27.7437 160.509 28.7886V33H159.293V24.9727H160.282L160.479 26.0713H160.538C160.787 25.6758 161.136 25.3706 161.585 25.1558C162.035 24.936 162.535 24.8262 163.087 24.8262C164.054 24.8262 164.781 25.0605 165.27 25.5293C165.758 25.9932 166.002 26.7378 166.002 27.7632V33H164.786ZM173.685 30.8101C173.685 31.5571 173.407 32.1333 172.85 32.5386C172.293 32.9438 171.512 33.1465 170.506 33.1465C169.442 33.1465 168.612 32.978 168.016 32.6411V31.5132C168.402 31.7085 168.814 31.8623 169.254 31.9746C169.698 32.0869 170.125 32.1431 170.536 32.1431C171.17 32.1431 171.659 32.043 172 31.8428C172.342 31.6377 172.513 31.3276 172.513 30.9126C172.513 30.6001 172.376 30.334 172.103 30.1143C171.834 29.8896 171.307 29.626 170.521 29.3232C169.774 29.0449 169.242 28.8032 168.924 28.5981C168.612 28.3882 168.377 28.1514 168.221 27.8877C168.07 27.624 167.994 27.3091 167.994 26.9429C167.994 26.2886 168.26 25.7734 168.792 25.3975C169.325 25.0166 170.055 24.8262 170.982 24.8262C171.847 24.8262 172.691 25.002 173.517 25.3535L173.084 26.3423C172.279 26.0103 171.549 25.8442 170.895 25.8442C170.318 25.8442 169.884 25.9346 169.591 26.1152C169.298 26.2959 169.151 26.5449 169.151 26.8623C169.151 27.0771 169.205 27.2603 169.312 27.4116C169.425 27.563 169.603 27.707 169.847 27.8438C170.091 27.9805 170.56 28.1782 171.253 28.437C172.206 28.7837 172.848 29.1328 173.18 29.4844C173.517 29.8359 173.685 30.2778 173.685 30.8101Z" fill="#32373B"/>
<path d="M291 27L294.934 30.934L298.869 27H291Z" fill="#32373B"/>
<path d="M323.555 11.6984C323.561 11.6244 323.568 11.5583 323.575 11.5H388.425C388.432 11.5583 388.439 11.6244 388.445 11.6984C388.479 12.0847 388.5 12.6288 388.5 13.2368V42.7632C388.5 43.3712 388.479 43.9153 388.445 44.3016C388.439 44.3756 388.432 44.4417 388.425 44.5H323.575C323.568 44.4417 323.561 44.3756 323.555 44.3016C323.521 43.9153 323.5 43.3711 323.5 42.7632V13.2368C323.5 12.6289 323.521 12.0847 323.555 11.6984Z" fill="white" stroke="#EFF3FB"/>
<path d="M339.237 33H338.05V25.3682C338.05 24.7334 338.07 24.1328 338.109 23.5664C338.006 23.6689 337.892 23.7764 337.765 23.8887C337.638 24.001 337.057 24.4771 336.021 25.3169L335.377 24.4819L338.211 22.292H339.237V33ZM350.355 33H343.316V31.9526L346.136 29.1182C346.996 28.249 347.562 27.6289 347.835 27.2578C348.109 26.8867 348.314 26.5254 348.451 26.1738C348.587 25.8223 348.656 25.4438 348.656 25.0386C348.656 24.4673 348.482 24.0156 348.136 23.6836C347.789 23.3467 347.308 23.1782 346.693 23.1782C346.249 23.1782 345.826 23.2515 345.426 23.3979C345.03 23.5444 344.588 23.8105 344.1 24.1963L343.456 23.3687C344.442 22.5483 345.516 22.1382 346.678 22.1382C347.684 22.1382 348.473 22.397 349.044 22.9146C349.615 23.4272 349.901 24.1182 349.901 24.9873C349.901 25.666 349.71 26.3374 349.33 27.0015C348.949 27.6655 348.236 28.5054 347.191 29.521L344.847 31.8135V31.8721H350.355V33Z" fill="#32373B"/>
<path d="M369 26L372.934 29.934L376.869 26H369Z" fill="#32373B"/>
<g clip-path="url(#clip0_8789_96814)">
<line x1="412" y1="36.9824" x2="429" y2="36.9824" stroke="#2161D0" stroke-width="4"/>
<path opacity="0.6" d="M413.479 32V31.1895C414.006 31.1504 414.318 31.1178 414.416 31.0918C414.52 31.0592 414.608 31.0137 414.68 30.9551C414.751 30.89 414.823 30.7923 414.895 30.6621C414.973 30.5254 415.197 30.0273 415.568 29.168C415.738 28.7643 416.063 27.9668 416.545 26.7754L419.094 20.4863L419.953 18.2695H421.34L425.705 28.4648L426.311 29.8027L426.701 30.7012C426.766 30.8184 426.828 30.903 426.887 30.9551C426.945 31.0072 427.01 31.0462 427.082 31.0723C427.16 31.0983 427.352 31.1211 427.658 31.1406C427.756 31.1536 427.899 31.1699 428.088 31.1895V32L425.373 31.9414L421.945 32V31.1895C422.733 31.1569 423.176 31.1146 423.273 31.0625C423.378 31.0039 423.43 30.9095 423.43 30.7793C423.43 30.6165 423.355 30.3496 423.205 29.9785L422.365 27.8301H417.346L416.916 29.002C416.59 29.9004 416.428 30.4603 416.428 30.6816C416.428 30.8379 416.48 30.9486 416.584 31.0137C416.74 31.1048 417.206 31.1634 417.98 31.1895V32L415.725 31.9414L413.479 32ZM417.795 26.7168C418.407 26.7363 419.1 26.7461 419.875 26.7461C420.624 26.7461 421.294 26.7363 421.887 26.7168L419.797 21.6777L417.795 26.7168Z" fill="#04151F"/>
<path d="M437 25.5244L440.934 29.4584L444.869 25.5244H437Z" fill="#04151F"/>
<g opacity="0.6">
<path d="M470.393 27.0616C471.017 26.7542 471.539 26.2728 471.896 25.6756C472.252 25.0784 472.428 24.3907 472.403 23.6956C472.43 22.9698 472.242 22.2523 471.865 21.6319C471.487 21.0115 470.936 20.5156 470.279 20.2056C469.419 19.853 468.492 19.6956 467.564 19.7446H461.284C461.174 19.7448 461.069 19.7887 460.991 19.8665C460.914 19.9443 460.87 20.0497 460.87 20.1596V20.9896C460.87 21.0995 460.914 21.2049 460.991 21.2827C461.069 21.3605 461.174 21.4043 461.284 21.4046H462.462V33.5806H461.283C461.173 33.5808 461.068 33.6247 460.99 33.7025C460.913 33.7803 460.869 33.8857 460.869 33.9956V34.8256C460.869 34.9355 460.913 35.0409 460.99 35.1187C461.068 35.1965 461.173 35.2403 461.283 35.2406H467.848C468.632 35.2719 469.416 35.1756 470.169 34.9556C471.018 34.6556 471.751 34.095 472.262 33.3538C472.773 32.6126 473.037 31.7288 473.016 30.8286C473.075 29.9954 472.848 29.1671 472.37 28.4816C471.893 27.7962 471.195 27.295 470.393 27.0616ZM464.651 21.5446H467.563C468.113 21.5183 468.662 21.6235 469.163 21.8516C469.503 22.0761 469.775 22.388 469.952 22.7544C470.129 23.1208 470.204 23.5282 470.169 23.9336C470.158 24.5568 469.901 25.1504 469.456 25.5863C469.01 26.0223 468.411 26.2655 467.788 26.2636H464.651V21.5446ZM469.315 33.2216C468.873 33.3817 468.405 33.4563 467.935 33.4416H464.651V28.0636H468.111C468.467 28.0384 468.824 28.0898 469.159 28.2141C469.493 28.3385 469.797 28.533 470.05 28.7846C470.303 29.0362 470.499 29.3391 470.626 29.6728C470.752 30.0066 470.805 30.3635 470.782 30.7196C470.814 31.2352 470.691 31.7485 470.43 32.1941C470.169 32.6398 469.781 32.9974 469.315 33.2216Z" fill="#04151F"/>
</g>
<g opacity="0.6">
<path d="M492.114 21.4033H493.514L491.168 33.5793H489.604C489.508 33.5793 489.415 33.6126 489.341 33.6735C489.267 33.7345 489.217 33.8192 489.198 33.9133L489.034 34.7433C489.022 34.8036 489.023 34.8661 489.037 34.926C489.052 34.986 489.079 35.042 489.118 35.0899C489.157 35.1377 489.206 35.1764 489.262 35.2029C489.318 35.2294 489.378 35.2432 489.44 35.2433H494.61C494.706 35.243 494.799 35.2096 494.873 35.1487C494.947 35.0879 494.997 35.0032 495.016 34.9093L495.18 34.0793C495.193 34.0189 495.192 33.9564 495.177 33.8965C495.163 33.8365 495.135 33.7806 495.096 33.7327C495.057 33.6848 495.008 33.6461 494.952 33.6196C494.897 33.5931 494.836 33.5793 494.774 33.5793H493.358L495.704 21.4033H497.284C497.38 21.4032 497.473 21.3699 497.547 21.309C497.621 21.2481 497.672 21.1633 497.69 21.0693L497.854 20.2393C497.867 20.1789 497.866 20.1164 497.851 20.0565C497.837 19.9965 497.809 19.9406 497.77 19.8927C497.731 19.8448 497.682 19.8061 497.626 19.7796C497.571 19.7531 497.51 19.7393 497.448 19.7393H492.278C492.182 19.7393 492.089 19.7726 492.015 19.8335C491.941 19.8945 491.891 19.9792 491.872 20.0733L491.708 20.9033C491.696 20.9636 491.697 21.0261 491.711 21.086C491.726 21.146 491.753 21.202 491.792 21.2499C491.831 21.2978 491.88 21.3364 491.936 21.3629C491.992 21.3894 492.052 21.4032 492.114 21.4033Z" fill="#04151F"/>
</g>
<g opacity="0.6">
<path d="M513.863 35.9303V35.1023C513.862 35.0487 513.872 34.9955 513.891 34.9457C513.911 34.8958 513.94 34.8503 513.977 34.8117C514.014 34.7732 514.059 34.7424 514.108 34.721C514.157 34.6996 514.21 34.6882 514.263 34.6873H528.346C528.4 34.6882 528.453 34.6996 528.502 34.721C528.551 34.7424 528.595 34.7732 528.633 34.8117C528.67 34.8503 528.699 34.8958 528.718 34.9457C528.738 34.9955 528.747 35.0487 528.746 35.1023V35.9323C528.747 35.9858 528.738 36.039 528.718 36.0889C528.699 36.1387 528.67 36.1842 528.633 36.2228C528.595 36.2613 528.551 36.2922 528.502 36.3135C528.453 36.3349 528.4 36.3463 528.346 36.3473H514.262C514.209 36.3462 514.156 36.3346 514.107 36.313C514.058 36.2915 514.013 36.2605 513.976 36.2217C513.939 36.183 513.91 36.1373 513.891 36.0872C513.871 36.0372 513.862 35.9839 513.863 35.9303ZM523.099 19.0493V19.8793C523.098 19.9328 523.108 19.986 523.127 20.0359C523.147 20.0857 523.176 20.1312 523.213 20.1698C523.25 20.2083 523.295 20.2392 523.344 20.2605C523.393 20.2819 523.446 20.2933 523.499 20.2943H524.837V27.5843C524.837 30.1583 523.51 31.4633 521.299 31.4633C519.088 31.4633 517.761 30.2423 517.761 27.6233V20.2953H519.104C519.158 20.2943 519.211 20.2829 519.26 20.2615C519.309 20.2402 519.353 20.2093 519.391 20.1708C519.428 20.1322 519.457 20.0867 519.476 20.0369C519.496 19.987 519.505 19.9338 519.504 19.8803V19.0503C519.505 18.9967 519.496 18.9435 519.476 18.8937C519.457 18.8438 519.428 18.7983 519.391 18.7597C519.353 18.7212 519.309 18.6904 519.26 18.669C519.211 18.6476 519.158 18.6362 519.104 18.6353H514.594C514.541 18.6362 514.488 18.6476 514.439 18.669C514.39 18.6904 514.345 18.7212 514.308 18.7597C514.271 18.7983 514.242 18.8438 514.222 18.8937C514.203 18.9435 514.193 18.9967 514.194 19.0503V19.8803C514.193 19.9338 514.203 19.987 514.222 20.0369C514.242 20.0867 514.271 20.1322 514.308 20.1708C514.345 20.2093 514.39 20.2402 514.439 20.2615C514.488 20.2829 514.541 20.2943 514.594 20.2953H515.937V27.6443C515.937 31.3353 518.13 33.2443 521.298 33.2443C524.406 33.2443 526.659 31.3073 526.659 27.6443V20.2953H528.002C528.056 20.2943 528.109 20.2829 528.158 20.2615C528.207 20.2402 528.251 20.2093 528.289 20.1708C528.326 20.1322 528.355 20.0867 528.374 20.0369C528.394 19.987 528.403 19.9338 528.402 19.8803V19.0503C528.403 18.9967 528.394 18.9435 528.374 18.8937C528.355 18.8438 528.326 18.7983 528.289 18.7597C528.251 18.7212 528.207 18.6904 528.158 18.669C528.109 18.6476 528.056 18.6362 528.002 18.6353H523.492C523.386 18.6392 523.285 18.6849 523.211 18.7625C523.138 18.8401 523.098 18.9435 523.1 19.0503L523.099 19.0493Z" fill="#04151F"/>
</g>
<rect x="536.746" y="9.49121" width="1" height="36" fill="#DFE1E6"/>
<g opacity="0.6">
<path d="M555.354 20.5509V21.6189C555.354 21.725 555.312 21.8267 555.237 21.9017C555.162 21.9767 555.06 22.0189 554.954 22.0189H546.147C546.041 22.0189 545.939 21.9767 545.864 21.9017C545.789 21.8267 545.747 21.725 545.747 21.6189V20.5509C545.747 20.4448 545.789 20.3431 545.864 20.268C545.939 20.193 546.041 20.1509 546.147 20.1509H554.954C555.06 20.1509 555.162 20.193 555.237 20.268C555.312 20.3431 555.354 20.4448 555.354 20.5509ZM546.146 26.2899H560.292C560.398 26.2899 560.5 26.2477 560.575 26.1727C560.65 26.0977 560.692 25.996 560.692 25.8899V24.8219C560.692 24.7158 560.65 24.6141 560.575 24.539C560.5 24.464 560.398 24.4219 560.292 24.4219H546.146C546.04 24.4219 545.938 24.464 545.863 24.539C545.788 24.6141 545.746 24.7158 545.746 24.8219V25.8899C545.746 25.9425 545.756 25.9946 545.776 26.0433C545.796 26.0919 545.826 26.1361 545.863 26.1734C545.9 26.2106 545.944 26.2402 545.993 26.2603C546.041 26.2805 546.093 26.2899 546.146 26.2899ZM546.146 34.8319H560.292C560.398 34.8319 560.5 34.7897 560.575 34.7147C560.65 34.6397 560.692 34.538 560.692 34.4319V33.3649C560.692 33.2588 560.65 33.1571 560.575 33.082C560.5 33.007 560.398 32.9649 560.292 32.9649H546.146C546.04 32.9649 545.938 33.007 545.863 33.082C545.788 33.1571 545.746 33.2588 545.746 33.3649V34.4329C545.746 34.539 545.788 34.6407 545.863 34.7157C545.938 34.7907 546.04 34.8319 546.146 34.8319ZM554.953 28.6919H546.146C546.04 28.6919 545.938 28.734 545.863 28.809C545.788 28.8841 545.746 28.9858 545.746 29.0919V30.1609C545.746 30.267 545.788 30.3687 545.863 30.4437C545.938 30.5187 546.04 30.5609 546.146 30.5609H554.953C555.059 30.5609 555.161 30.5187 555.236 30.4437C555.311 30.3687 555.353 30.267 555.353 30.1609V29.0939C555.353 29.0413 555.343 28.9891 555.323 28.9405C555.303 28.8919 555.273 28.8476 555.236 28.8104C555.199 28.7731 555.155 28.7436 555.106 28.7234C555.058 28.7033 555.006 28.6919 554.953 28.6919Z" fill="#04151F"/>
<path d="M568.692 25.5244L572.626 29.4584L576.561 25.5244H568.692Z" fill="#04151F"/>
</g>
<g opacity="0.6">
<path d="M596.043 21.6907C596.031 22.0209 595.923 22.3406 595.732 22.6098C595.54 22.879 595.273 23.0858 594.965 23.2044C594.656 23.3231 594.32 23.3483 593.997 23.277C593.675 23.2057 593.38 23.041 593.15 22.8034C592.921 22.5658 592.766 22.2659 592.706 21.941C592.645 21.6161 592.682 21.2807 592.811 20.9765C592.94 20.6723 593.156 20.4128 593.431 20.2304C593.707 20.0479 594.03 19.9507 594.361 19.9507C594.814 19.9586 595.246 20.1463 595.562 20.4725C595.877 20.7988 596.05 21.237 596.043 21.6907ZM594.361 25.7507C594.014 25.7389 593.672 25.831 593.378 26.015C593.084 26.1991 592.851 26.4668 592.711 26.7838C592.57 27.1007 592.527 27.4525 592.587 27.7941C592.648 28.1356 592.809 28.4513 593.05 28.7007C593.291 28.9501 593.601 29.1218 593.94 29.1938C594.28 29.2658 594.633 29.2348 594.954 29.1047C595.276 28.9747 595.551 28.7516 595.745 28.4641C595.939 28.1765 596.043 27.8375 596.043 27.4907C596.049 27.0373 595.876 26.5997 595.561 26.2738C595.246 25.948 594.814 25.7606 594.361 25.7527V25.7507ZM594.361 31.5507C594.014 31.5389 593.672 31.631 593.378 31.815C593.084 31.9991 592.851 32.2668 592.711 32.5838C592.57 32.9007 592.527 33.2525 592.587 33.5941C592.648 33.9356 592.809 34.2513 593.05 34.5007C593.291 34.7501 593.601 34.9218 593.94 34.9938C594.28 35.0658 594.633 35.0348 594.954 34.9047C595.276 34.7747 595.551 34.5516 595.745 34.2641C595.939 33.9765 596.043 33.6375 596.043 33.2907C596.049 32.8375 595.876 32.4001 595.561 32.0745C595.245 31.7489 594.814 31.5616 594.361 31.5537V31.5507ZM610.623 22.2697V21.1097C610.623 21.0535 610.613 20.9976 610.593 20.9454C610.572 20.8931 610.541 20.8454 610.502 20.805C610.463 20.7646 610.416 20.7323 610.365 20.7099C610.313 20.6876 610.258 20.6756 610.202 20.6747H597.585C597.528 20.6756 597.473 20.6876 597.421 20.7099C597.37 20.7323 597.323 20.7646 597.284 20.805C597.245 20.8454 597.214 20.8931 597.193 20.9454C597.173 20.9976 597.163 21.0535 597.164 21.1097V22.2697C597.163 22.3259 597.173 22.3817 597.193 22.434C597.214 22.4863 597.245 22.534 597.284 22.5744C597.323 22.6148 597.37 22.6471 597.421 22.6694C597.473 22.6918 597.528 22.7038 597.585 22.7047H610.203C610.316 22.7028 610.423 22.6564 610.502 22.5755C610.581 22.4945 610.625 22.3857 610.624 22.2727L610.623 22.2697ZM610.623 28.0697V26.9097C610.623 26.8535 610.613 26.7976 610.593 26.7454C610.572 26.6931 610.541 26.6454 610.502 26.605C610.463 26.5646 610.416 26.5323 610.365 26.5099C610.313 26.4876 610.258 26.4756 610.202 26.4747H597.585C597.528 26.4756 597.473 26.4876 597.421 26.5099C597.37 26.5323 597.323 26.5646 597.284 26.605C597.245 26.6454 597.214 26.6931 597.193 26.7454C597.173 26.7976 597.163 26.8535 597.164 26.9097V28.0697C597.163 28.1259 597.173 28.1817 597.193 28.234C597.214 28.2863 597.245 28.334 597.284 28.3744C597.323 28.4148 597.37 28.4471 597.421 28.4694C597.473 28.4918 597.528 28.5038 597.585 28.5047H610.203C610.316 28.5028 610.423 28.4564 610.502 28.3755C610.581 28.2945 610.625 28.1857 610.624 28.0727L610.623 28.0697ZM610.623 33.8697V32.7097C610.623 32.6535 610.613 32.5976 610.593 32.5454C610.572 32.4931 610.541 32.4454 610.502 32.405C610.463 32.3646 610.416 32.3323 610.365 32.3099C610.313 32.2876 610.258 32.2756 610.202 32.2747H597.585C597.528 32.2756 597.473 32.2876 597.421 32.3099C597.37 32.3323 597.323 32.3646 597.284 32.405C597.245 32.4454 597.214 32.4931 597.193 32.5454C597.173 32.5976 597.163 32.6535 597.164 32.7097V33.8697C597.163 33.9259 597.173 33.9817 597.193 34.034C597.214 34.0863 597.245 34.134 597.284 34.1744C597.323 34.2148 597.37 34.2471 597.421 34.2694C597.473 34.2918 597.528 34.3038 597.585 34.3047H610.203C610.315 34.3028 610.423 34.2565 610.502 34.1758C610.581 34.0951 610.624 33.9865 610.624 33.8737L610.623 33.8697Z" fill="#04151F"/>
</g>
<g opacity="0.6">
<path d="M643.236 22.9243H631.222C631.168 22.9234 631.115 22.9119 631.066 22.8906C631.017 22.8692 630.973 22.8384 630.936 22.7998C630.899 22.7613 630.869 22.7158 630.85 22.6659C630.83 22.6161 630.821 22.5628 630.822 22.5093V21.4023C630.82 21.2943 630.861 21.1899 630.936 21.1121C631.011 21.0343 631.114 20.9894 631.222 20.9873H643.236C643.344 20.9894 643.447 21.0343 643.522 21.1121C643.597 21.1899 643.638 21.2943 643.636 21.4023V22.5093C643.638 22.6174 643.597 22.7217 643.522 22.7995C643.447 22.8773 643.344 22.9222 643.236 22.9243ZM643.636 28.0443V26.9373C643.638 26.8293 643.597 26.7249 643.522 26.6471C643.447 26.5693 643.344 26.5244 643.236 26.5223H631.222C631.168 26.5232 631.115 26.5347 631.066 26.5561C631.017 26.5774 630.973 26.6083 630.936 26.6468C630.899 26.6854 630.869 26.7309 630.85 26.7807C630.83 26.8306 630.821 26.8838 630.822 26.9373V28.0443C630.821 28.0978 630.83 28.1511 630.85 28.2009C630.869 28.2508 630.899 28.2963 630.936 28.3348C630.973 28.3734 631.017 28.4042 631.066 28.4256C631.115 28.4469 631.168 28.4584 631.222 28.4593H643.236C643.289 28.4584 643.342 28.4469 643.391 28.4256C643.441 28.4042 643.485 28.3734 643.522 28.3349C643.56 28.2963 643.589 28.2508 643.608 28.201C643.628 28.1511 643.637 28.0979 643.636 28.0443ZM643.636 33.5793V32.4713C643.638 32.3633 643.597 32.2589 643.522 32.1811C643.447 32.1033 643.344 32.0584 643.236 32.0563H631.222C631.168 32.0572 631.115 32.0687 631.066 32.0901C631.017 32.1114 630.973 32.1423 630.936 32.1808C630.899 32.2194 630.869 32.2649 630.85 32.3147C630.83 32.3646 630.821 32.4178 630.822 32.4713V33.5803C630.821 33.6338 630.83 33.6871 630.85 33.7369C630.869 33.7868 630.899 33.8323 630.936 33.8708C630.973 33.9094 631.017 33.9402 631.066 33.9616C631.115 33.9829 631.168 33.9944 631.222 33.9953H643.236C643.289 33.9944 643.342 33.9829 643.391 33.9616C643.441 33.9402 643.485 33.9094 643.522 33.8709C643.56 33.8323 643.589 33.7868 643.608 33.737C643.628 33.6871 643.638 33.6339 643.637 33.5803L643.636 33.5793ZM626.66 23.7693C626.652 23.8224 626.657 23.8765 626.673 23.9275C626.69 23.9786 626.718 24.0252 626.755 24.0638C626.792 24.1023 626.838 24.1319 626.888 24.1502C626.939 24.1685 626.993 24.175 627.046 24.1693H629.291C629.344 24.175 629.398 24.1685 629.448 24.1502C629.499 24.1319 629.544 24.1023 629.582 24.0638C629.619 24.0252 629.647 23.9786 629.663 23.9275C629.68 23.8765 629.684 23.8224 629.677 23.7693V23.4613C629.684 23.4082 629.68 23.3541 629.663 23.3031C629.647 23.252 629.619 23.2055 629.582 23.1669C629.544 23.1283 629.499 23.0987 629.448 23.0804C629.398 23.0621 629.344 23.0556 629.291 23.0613H628.775V20.1423C628.782 20.0887 628.778 20.0341 628.761 19.9826C628.744 19.9312 628.715 19.8843 628.677 19.8457C628.64 19.807 628.593 19.7776 628.542 19.7596C628.491 19.7417 628.437 19.7358 628.383 19.7423H627.983C627.893 19.739 627.803 19.7552 627.72 19.7897C627.637 19.8242 627.563 19.8763 627.502 19.9423L626.777 20.6323C626.733 20.665 626.698 20.7071 626.673 20.7555C626.647 20.8039 626.634 20.8573 626.632 20.9117C626.63 20.9662 626.641 21.0203 626.663 21.0701C626.685 21.1199 626.718 21.164 626.76 21.1993L626.944 21.4153C626.972 21.4568 627.01 21.4914 627.053 21.5165C627.097 21.5415 627.146 21.5564 627.196 21.5599C627.246 21.5635 627.296 21.5556 627.343 21.537C627.39 21.5184 627.432 21.4894 627.466 21.4523C627.502 21.4118 627.536 21.3687 627.566 21.3233H627.578C627.578 21.3233 627.561 21.5083 627.561 21.6863V23.0653H627.056C627.003 23.0596 626.949 23.0661 626.898 23.0844C626.848 23.1027 626.802 23.1323 626.765 23.1709C626.728 23.2095 626.7 23.256 626.683 23.3071C626.667 23.3581 626.662 23.4122 626.67 23.4653L626.66 23.7693ZM626.625 29.3103C626.621 29.3635 626.629 29.4168 626.648 29.4665C626.667 29.5163 626.697 29.5614 626.735 29.5988C626.773 29.6362 626.818 29.665 626.868 29.6832C626.918 29.7014 626.972 29.7086 627.025 29.7043H629.292C629.345 29.71 629.398 29.7037 629.448 29.6858C629.498 29.6679 629.543 29.6389 629.58 29.601C629.618 29.5631 629.646 29.5172 629.663 29.4668C629.679 29.4165 629.685 29.363 629.678 29.3103V29.0103C629.685 28.9576 629.68 28.904 629.663 28.8536C629.646 28.8031 629.618 28.7572 629.581 28.7192C629.544 28.6812 629.498 28.6522 629.448 28.6344C629.398 28.6166 629.345 28.6104 629.292 28.6163H627.992C628.057 28.2533 629.617 27.9743 629.617 26.6473C629.617 26.4574 629.579 26.2695 629.503 26.0954C629.427 25.9214 629.316 25.765 629.176 25.6362C629.037 25.5075 628.872 25.4092 628.692 25.3476C628.513 25.2859 628.322 25.2624 628.133 25.2783C627.872 25.268 627.613 25.3217 627.377 25.4346C627.142 25.5476 626.938 25.7164 626.783 25.9263C626.749 25.9656 626.725 26.0118 626.711 26.0617C626.697 26.1115 626.695 26.1638 626.704 26.2147C626.713 26.2656 626.733 26.314 626.763 26.3562C626.792 26.3985 626.831 26.4337 626.876 26.4593L627.163 26.6953C627.35 26.8533 627.531 26.7803 627.7 26.6103C627.741 26.5684 627.79 26.535 627.844 26.5122C627.898 26.4894 627.956 26.4775 628.015 26.4773C628.055 26.4743 628.096 26.4799 628.135 26.4938C628.173 26.5077 628.208 26.5295 628.237 26.5579C628.266 26.5862 628.289 26.6204 628.304 26.6582C628.32 26.696 628.326 26.7366 628.325 26.7773C628.325 27.2193 626.625 27.5343 626.625 29.1703V29.3103ZM626.825 34.9103C627.184 35.134 627.602 35.2476 628.025 35.2373C628.234 35.2558 628.445 35.2297 628.643 35.1608C628.842 35.0919 629.024 34.9817 629.176 34.8376C629.329 34.6934 629.45 34.5185 629.53 34.3244C629.611 34.1303 629.649 33.9213 629.643 33.7113C629.642 33.4317 629.547 33.1605 629.373 32.9417C629.199 32.7229 628.956 32.5695 628.684 32.5063L629.269 31.8063C629.386 31.6701 629.446 31.4945 629.438 31.3153V31.2003C629.446 31.148 629.441 31.0947 629.425 31.0444C629.409 30.994 629.381 30.9481 629.345 30.9101C629.308 30.872 629.263 30.8429 629.213 30.8249C629.163 30.8069 629.11 30.8006 629.058 30.8063H627.106C627.053 30.8001 627 30.8062 626.95 30.824C626.9 30.8419 626.855 30.871 626.818 30.9092C626.782 30.9473 626.754 30.9935 626.738 31.044C626.723 31.0945 626.719 31.148 626.727 31.2003V31.5003C626.719 31.5525 626.724 31.6058 626.74 31.656C626.756 31.7062 626.783 31.7521 626.82 31.7901C626.856 31.8281 626.901 31.8573 626.951 31.8754C627 31.8934 627.053 31.8999 627.106 31.8943H627.539C627.68 31.8984 627.821 31.8863 627.96 31.8583V31.8803C627.814 32.027 627.677 32.1826 627.551 32.3463L627.364 32.5883C627.299 32.6553 627.256 32.74 627.239 32.8317C627.222 32.9234 627.234 33.0179 627.271 33.1033L627.305 33.1703C627.334 33.2544 627.389 33.3267 627.463 33.376C627.537 33.4253 627.625 33.449 627.714 33.4433H627.872C628.217 33.4433 628.403 33.5283 628.403 33.7583C628.403 33.9213 628.263 34.0433 627.925 34.0433C627.759 34.0413 627.596 34.0042 627.446 33.9343C627.229 33.8013 627.054 33.8133 626.926 34.0433L626.739 34.3643C626.707 34.4055 626.684 34.4528 626.672 34.5032C626.659 34.5535 626.657 34.606 626.665 34.6573C626.673 34.7086 626.692 34.7576 626.72 34.8015C626.747 34.8453 626.784 34.883 626.827 34.9123L626.825 34.9103Z" fill="#262338"/>
</g>
</g>
<defs>
<clipPath id="clip0_8789_96814">
<rect width="247.637" height="38.9824" fill="white" transform="translate(404 8)"/>
</clipPath>
</defs>
</svg>
