<svg width="734" height="466" viewBox="0 0 734 466" fill="none" xmlns="http://www.w3.org/2000/svg">
<g filter="url(#filter0_d_8507_85924)">
<rect x="30" y="14" width="674" height="406" rx="8" fill="white" shape-rendering="crispEdges"/>
<path d="M60.594 44.242V45.278H56.352V48.568H59.796V49.604H56.352V54H55.078V44.242H60.594ZM63.0407 45.082C62.798 45.082 62.5927 44.998 62.4247 44.83C62.2567 44.662 62.1727 44.4567 62.1727 44.214C62.1727 43.9713 62.2567 43.766 62.4247 43.598C62.5927 43.43 62.798 43.346 63.0407 43.346C63.274 43.346 63.47 43.43 63.6287 43.598C63.7967 43.766 63.8807 43.9713 63.8807 44.214C63.8807 44.4567 63.7967 44.662 63.6287 44.83C63.47 44.998 63.274 45.082 63.0407 45.082ZM63.6567 46.328V54H62.3827V46.328H63.6567ZM67.352 43.64V54H66.078V43.64H67.352ZM71.3273 47.378V51.9C71.3273 52.2733 71.4066 52.5393 71.5653 52.698C71.724 52.8473 71.9993 52.922 72.3913 52.922H73.3293V54H72.1813C71.472 54 70.94 53.8367 70.5853 53.51C70.2306 53.1833 70.0533 52.6467 70.0533 51.9V47.378H69.0593V46.328H70.0533V44.396H71.3273V46.328H73.3293V47.378H71.3273ZM82.1229 49.87C82.1229 50.1127 82.1089 50.3693 82.0809 50.64H75.9489C75.9956 51.396 76.2523 51.9887 76.7189 52.418C77.1949 52.838 77.7689 53.048 78.4409 53.048C78.9916 53.048 79.4489 52.922 79.8129 52.67C80.1863 52.4087 80.4476 52.0633 80.5969 51.634H81.9689C81.7636 52.3713 81.3529 52.9733 80.7369 53.44C80.1209 53.8973 79.3556 54.126 78.4409 54.126C77.7129 54.126 77.0596 53.9627 76.4809 53.636C75.9116 53.3093 75.4636 52.8473 75.1369 52.25C74.8103 51.6433 74.6469 50.9433 74.6469 50.15C74.6469 49.3567 74.8056 48.6613 75.1229 48.064C75.4403 47.4667 75.8836 47.0093 76.4529 46.692C77.0316 46.3653 77.6943 46.202 78.4409 46.202C79.1689 46.202 79.8129 46.3607 80.3729 46.678C80.9329 46.9953 81.3623 47.434 81.6609 47.994C81.9689 48.5447 82.1229 49.17 82.1229 49.87ZM80.8069 49.604C80.8069 49.1187 80.6996 48.7033 80.4849 48.358C80.2703 48.0033 79.9763 47.7373 79.6029 47.56C79.2389 47.3733 78.8329 47.28 78.3849 47.28C77.7409 47.28 77.1903 47.4853 76.7329 47.896C76.2849 48.3067 76.0283 48.876 75.9629 49.604H80.8069ZM85.3286 47.574C85.5526 47.1353 85.8699 46.7947 86.2806 46.552C86.7006 46.3093 87.2092 46.188 87.8066 46.188V47.504H87.4706C86.0426 47.504 85.3286 48.2787 85.3286 49.828V54H84.0546V46.328H85.3286V47.574ZM98.3956 48.974C98.7503 49.03 99.0723 49.1747 99.3616 49.408C99.6603 49.6413 99.8936 49.9307 100.062 50.276C100.239 50.6213 100.328 50.99 100.328 51.382C100.328 51.8767 100.202 52.3247 99.9496 52.726C99.6976 53.118 99.329 53.4307 98.8436 53.664C98.3676 53.888 97.803 54 97.1496 54H93.5096V44.242H97.0096C97.6723 44.242 98.237 44.354 98.7036 44.578C99.1703 44.7927 99.5203 45.0867 99.7536 45.46C99.987 45.8333 100.104 46.2533 100.104 46.72C100.104 47.2987 99.945 47.7793 99.6276 48.162C99.3196 48.5353 98.909 48.806 98.3956 48.974ZM94.7836 48.456H96.9256C97.523 48.456 97.985 48.316 98.3116 48.036C98.6383 47.756 98.8016 47.3687 98.8016 46.874C98.8016 46.3793 98.6383 45.992 98.3116 45.712C97.985 45.432 97.5136 45.292 96.8976 45.292H94.7836V48.456ZM97.0376 52.95C97.6723 52.95 98.167 52.8007 98.5216 52.502C98.8763 52.2033 99.0536 51.788 99.0536 51.256C99.0536 50.7147 98.867 50.29 98.4936 49.982C98.1203 49.6647 97.621 49.506 96.9956 49.506H94.7836V52.95H97.0376ZM108.954 46.328L104.334 57.612H103.018L104.53 53.916L101.436 46.328H102.85L105.258 52.544L107.638 46.328H108.954Z" fill="#6E7191"/>
<rect x="54" y="76" width="24" height="24" rx="12" fill="#D9DBE9"/>
<path d="M97.824 91.52H92.96L92.064 94H90.528L94.56 82.912H96.24L100.256 94H98.72L97.824 91.52ZM97.408 90.336L95.392 84.704L93.376 90.336H97.408ZM103.719 82.16V94H102.263V82.16H103.719ZM107.907 82.16V94H106.451V82.16H107.907Z" fill="black"/>
<rect x="134" y="76" width="24" height="24" rx="12" fill="#2E5CB2"/>
<rect x="141" y="83" width="10" height="10" rx="5" fill="#FCFCFC"/>
<path d="M174.704 82.848C175.92 82.848 176.971 83.0773 177.856 83.536C178.752 83.984 179.435 84.6293 179.904 85.472C180.384 86.3147 180.624 87.3067 180.624 88.448C180.624 89.5893 180.384 90.5813 179.904 91.424C179.435 92.256 178.752 92.896 177.856 93.344C176.971 93.7813 175.92 94 174.704 94H171.232V82.848H174.704ZM174.704 92.8C176.144 92.8 177.243 92.4213 178 91.664C178.757 90.896 179.136 89.824 179.136 88.448C179.136 87.0613 178.752 85.9787 177.984 85.2C177.227 84.4213 176.133 84.032 174.704 84.032H172.688V92.8H174.704ZM190.795 89.28C190.795 89.5573 190.779 89.8507 190.747 90.16H183.739C183.792 91.024 184.085 91.7013 184.619 92.192C185.163 92.672 185.819 92.912 186.587 92.912C187.216 92.912 187.739 92.768 188.155 92.48C188.581 92.1813 188.88 91.7867 189.051 91.296H190.619C190.384 92.1387 189.915 92.8267 189.211 93.36C188.507 93.8827 187.632 94.144 186.587 94.144C185.755 94.144 185.008 93.9573 184.347 93.584C183.696 93.2107 183.184 92.6827 182.811 92C182.437 91.3067 182.251 90.5067 182.251 89.6C182.251 88.6933 182.432 87.8987 182.795 87.216C183.157 86.5333 183.664 86.0107 184.315 85.648C184.976 85.2747 185.733 85.088 186.587 85.088C187.419 85.088 188.155 85.2693 188.795 85.632C189.435 85.9947 189.925 86.496 190.267 87.136C190.619 87.7653 190.795 88.48 190.795 89.28ZM189.291 88.976C189.291 88.4213 189.168 87.9467 188.923 87.552C188.677 87.1467 188.341 86.8427 187.915 86.64C187.499 86.4267 187.035 86.32 186.523 86.32C185.787 86.32 185.157 86.5547 184.635 87.024C184.123 87.4933 183.829 88.144 183.755 88.976H189.291ZM194.422 86.848C194.71 86.3467 195.137 85.9307 195.702 85.6C196.278 85.2587 196.945 85.088 197.702 85.088C198.481 85.088 199.185 85.2747 199.814 85.648C200.454 86.0213 200.956 86.5493 201.318 87.232C201.681 87.904 201.862 88.688 201.862 89.584C201.862 90.4693 201.681 91.2587 201.318 91.952C200.956 92.6453 200.454 93.184 199.814 93.568C199.185 93.952 198.481 94.144 197.702 94.144C196.956 94.144 196.294 93.9787 195.718 93.648C195.153 93.3067 194.721 92.8853 194.422 92.384V98.16H192.966V85.232H194.422V86.848ZM200.374 89.584C200.374 88.9227 200.241 88.3467 199.974 87.856C199.708 87.3653 199.345 86.992 198.886 86.736C198.438 86.48 197.942 86.352 197.398 86.352C196.865 86.352 196.369 86.4853 195.91 86.752C195.462 87.008 195.1 87.3867 194.822 87.888C194.556 88.3787 194.422 88.9493 194.422 89.6C194.422 90.2613 194.556 90.8427 194.822 91.344C195.1 91.8347 195.462 92.2133 195.91 92.48C196.369 92.736 196.865 92.864 197.398 92.864C197.942 92.864 198.438 92.736 198.886 92.48C199.345 92.2133 199.708 91.8347 199.974 91.344C200.241 90.8427 200.374 90.256 200.374 89.584ZM203.485 89.584C203.485 88.688 203.666 87.904 204.029 87.232C204.392 86.5493 204.888 86.0213 205.517 85.648C206.157 85.2747 206.866 85.088 207.645 85.088C208.413 85.088 209.08 85.2533 209.645 85.584C210.21 85.9147 210.632 86.3307 210.909 86.832V85.232H212.381V94H210.909V92.368C210.621 92.88 210.189 93.3067 209.613 93.648C209.048 93.9787 208.386 94.144 207.629 94.144C206.85 94.144 206.146 93.952 205.517 93.568C204.888 93.184 204.392 92.6453 204.029 91.952C203.666 91.2587 203.485 90.4693 203.485 89.584ZM210.909 89.6C210.909 88.9387 210.776 88.3627 210.509 87.872C210.242 87.3813 209.88 87.008 209.421 86.752C208.973 86.4853 208.477 86.352 207.933 86.352C207.389 86.352 206.893 86.48 206.445 86.736C205.997 86.992 205.64 87.3653 205.373 87.856C205.106 88.3467 204.973 88.9227 204.973 89.584C204.973 90.256 205.106 90.8427 205.373 91.344C205.64 91.8347 205.997 92.2133 206.445 92.48C206.893 92.736 207.389 92.864 207.933 92.864C208.477 92.864 208.973 92.736 209.421 92.48C209.88 92.2133 210.242 91.8347 210.509 91.344C210.776 90.8427 210.909 90.2613 210.909 89.6ZM216.547 86.656C216.803 86.1547 217.166 85.7653 217.635 85.488C218.115 85.2107 218.697 85.072 219.379 85.072V86.576H218.995C217.363 86.576 216.547 87.4613 216.547 89.232V94H215.091V85.232H216.547V86.656ZM223.086 86.432V91.6C223.086 92.0267 223.177 92.3307 223.358 92.512C223.539 92.6827 223.854 92.768 224.302 92.768H225.374V94H224.062C223.251 94 222.643 93.8133 222.238 93.44C221.833 93.0667 221.63 92.4533 221.63 91.6V86.432H220.494V85.232H221.63V83.024H223.086V85.232H225.374V86.432H223.086ZM237.932 85.072C238.615 85.072 239.223 85.216 239.756 85.504C240.29 85.7813 240.711 86.2027 241.02 86.768C241.33 87.3333 241.484 88.0213 241.484 88.832V94H240.044V89.04C240.044 88.1653 239.826 87.4987 239.388 87.04C238.962 86.5707 238.38 86.336 237.644 86.336C236.887 86.336 236.284 86.5813 235.836 87.072C235.388 87.552 235.164 88.2507 235.164 89.168V94H233.724V89.04C233.724 88.1653 233.506 87.4987 233.068 87.04C232.642 86.5707 232.06 86.336 231.324 86.336C230.567 86.336 229.964 86.5813 229.516 87.072C229.068 87.552 228.844 88.2507 228.844 89.168V94H227.388V85.232H228.844V86.496C229.132 86.0373 229.516 85.6853 229.996 85.44C230.487 85.1947 231.026 85.072 231.612 85.072C232.348 85.072 232.999 85.2373 233.564 85.568C234.13 85.8987 234.551 86.384 234.828 87.024C235.074 86.4053 235.479 85.9253 236.044 85.584C236.61 85.2427 237.239 85.072 237.932 85.072ZM252.123 89.28C252.123 89.5573 252.107 89.8507 252.075 90.16H245.067C245.12 91.024 245.413 91.7013 245.947 92.192C246.491 92.672 247.147 92.912 247.915 92.912C248.544 92.912 249.067 92.768 249.483 92.48C249.909 92.1813 250.208 91.7867 250.379 91.296H251.947C251.712 92.1387 251.243 92.8267 250.539 93.36C249.835 93.8827 248.96 94.144 247.915 94.144C247.083 94.144 246.336 93.9573 245.675 93.584C245.024 93.2107 244.512 92.6827 244.139 92C243.765 91.3067 243.579 90.5067 243.579 89.6C243.579 88.6933 243.76 87.8987 244.123 87.216C244.485 86.5333 244.992 86.0107 245.643 85.648C246.304 85.2747 247.061 85.088 247.915 85.088C248.747 85.088 249.483 85.2693 250.123 85.632C250.763 85.9947 251.253 86.496 251.595 87.136C251.947 87.7653 252.123 88.48 252.123 89.28ZM250.619 88.976C250.619 88.4213 250.496 87.9467 250.251 87.552C250.005 87.1467 249.669 86.8427 249.243 86.64C248.827 86.4267 248.363 86.32 247.851 86.32C247.115 86.32 246.485 86.5547 245.963 87.024C245.451 87.4933 245.157 88.144 245.083 88.976H250.619ZM258.567 85.072C259.633 85.072 260.497 85.3973 261.159 86.048C261.82 86.688 262.151 87.616 262.151 88.832V94H260.711V89.04C260.711 88.1653 260.492 87.4987 260.055 87.04C259.617 86.5707 259.02 86.336 258.263 86.336C257.495 86.336 256.881 86.576 256.423 87.056C255.975 87.536 255.751 88.2347 255.751 89.152V94H254.295V85.232H255.751V86.48C256.039 86.032 256.428 85.6853 256.919 85.44C257.42 85.1947 257.969 85.072 258.567 85.072ZM266.555 86.432V91.6C266.555 92.0267 266.646 92.3307 266.827 92.512C267.008 92.6827 267.323 92.768 267.771 92.768H268.843V94H267.531C266.72 94 266.112 93.8133 265.707 93.44C265.302 93.0667 265.099 92.4533 265.099 91.6V86.432H263.963V85.232H265.099V83.024H266.555V85.232H268.843V86.432H266.555Z" fill="black"/>
<rect x="294" y="76" width="24" height="24" rx="12" fill="#D9DBE9"/>
<path d="M332.688 82.848V94H331.232V82.848H332.688ZM339.692 85.072C340.758 85.072 341.622 85.3973 342.284 86.048C342.945 86.688 343.276 87.616 343.276 88.832V94H341.836V89.04C341.836 88.1653 341.617 87.4987 341.18 87.04C340.742 86.5707 340.145 86.336 339.388 86.336C338.62 86.336 338.006 86.576 337.548 87.056C337.1 87.536 336.876 88.2347 336.876 89.152V94H335.42V85.232H336.876V86.48C337.164 86.032 337.553 85.6853 338.044 85.44C338.545 85.1947 339.094 85.072 339.692 85.072ZM345.36 89.584C345.36 88.688 345.541 87.904 345.904 87.232C346.267 86.5493 346.763 86.0213 347.392 85.648C348.032 85.2747 348.747 85.088 349.536 85.088C350.219 85.088 350.853 85.248 351.44 85.568C352.027 85.8773 352.475 86.288 352.784 86.8V82.16H354.256V94H352.784V92.352C352.496 92.8747 352.069 93.3067 351.504 93.648C350.939 93.9787 350.277 94.144 349.52 94.144C348.741 94.144 348.032 93.952 347.392 93.568C346.763 93.184 346.267 92.6453 345.904 91.952C345.541 91.2587 345.36 90.4693 345.36 89.584ZM352.784 89.6C352.784 88.9387 352.651 88.3627 352.384 87.872C352.117 87.3813 351.755 87.008 351.296 86.752C350.848 86.4853 350.352 86.352 349.808 86.352C349.264 86.352 348.768 86.48 348.32 86.736C347.872 86.992 347.515 87.3653 347.248 87.856C346.981 88.3467 346.848 88.9227 346.848 89.584C346.848 90.256 346.981 90.8427 347.248 91.344C347.515 91.8347 347.872 92.2133 348.32 92.48C348.768 92.736 349.264 92.864 349.808 92.864C350.352 92.864 350.848 92.736 351.296 92.48C351.755 92.2133 352.117 91.8347 352.384 91.344C352.651 90.8427 352.784 90.2613 352.784 89.6ZM357.718 83.808C357.441 83.808 357.206 83.712 357.014 83.52C356.822 83.328 356.726 83.0933 356.726 82.816C356.726 82.5387 356.822 82.304 357.014 82.112C357.206 81.92 357.441 81.824 357.718 81.824C357.985 81.824 358.209 81.92 358.39 82.112C358.582 82.304 358.678 82.5387 358.678 82.816C358.678 83.0933 358.582 83.328 358.39 83.52C358.209 83.712 357.985 83.808 357.718 83.808ZM358.422 85.232V94H356.966V85.232H358.422ZM364.418 92.656L367.138 85.232H368.69L365.25 94H363.554L360.114 85.232H361.682L364.418 92.656ZM371.125 83.808C370.847 83.808 370.613 83.712 370.421 83.52C370.229 83.328 370.133 83.0933 370.133 82.816C370.133 82.5387 370.229 82.304 370.421 82.112C370.613 81.92 370.847 81.824 371.125 81.824C371.391 81.824 371.615 81.92 371.797 82.112C371.989 82.304 372.085 82.5387 372.085 82.816C372.085 83.0933 371.989 83.328 371.797 83.52C371.615 83.712 371.391 83.808 371.125 83.808ZM371.829 85.232V94H370.373V85.232H371.829ZM374.016 89.584C374.016 88.688 374.197 87.904 374.56 87.232C374.923 86.5493 375.419 86.0213 376.048 85.648C376.688 85.2747 377.403 85.088 378.192 85.088C378.875 85.088 379.509 85.248 380.096 85.568C380.683 85.8773 381.131 86.288 381.44 86.8V82.16H382.912V94H381.44V92.352C381.152 92.8747 380.725 93.3067 380.16 93.648C379.595 93.9787 378.933 94.144 378.176 94.144C377.397 94.144 376.688 93.952 376.048 93.568C375.419 93.184 374.923 92.6453 374.56 91.952C374.197 91.2587 374.016 90.4693 374.016 89.584ZM381.44 89.6C381.44 88.9387 381.307 88.3627 381.04 87.872C380.773 87.3813 380.411 87.008 379.952 86.752C379.504 86.4853 379.008 86.352 378.464 86.352C377.92 86.352 377.424 86.48 376.976 86.736C376.528 86.992 376.171 87.3653 375.904 87.856C375.637 88.3467 375.504 88.9227 375.504 89.584C375.504 90.256 375.637 90.8427 375.904 91.344C376.171 91.8347 376.528 92.2133 376.976 92.48C377.424 92.736 377.92 92.864 378.464 92.864C379.008 92.864 379.504 92.736 379.952 92.48C380.411 92.2133 380.773 91.8347 381.04 91.344C381.307 90.8427 381.44 90.2613 381.44 89.6ZM393.399 85.232V94H391.943V92.704C391.665 93.152 391.276 93.504 390.775 93.76C390.284 94.0053 389.74 94.128 389.143 94.128C388.46 94.128 387.847 93.9893 387.303 93.712C386.759 93.424 386.327 92.9973 386.007 92.432C385.697 91.8667 385.543 91.1787 385.543 90.368V85.232H386.983V90.176C386.983 91.04 387.201 91.7067 387.639 92.176C388.076 92.6347 388.673 92.864 389.431 92.864C390.209 92.864 390.823 92.624 391.271 92.144C391.719 91.664 391.943 90.9653 391.943 90.048V85.232H393.399ZM395.563 89.584C395.563 88.688 395.744 87.904 396.107 87.232C396.47 86.5493 396.966 86.0213 397.595 85.648C398.235 85.2747 398.944 85.088 399.723 85.088C400.491 85.088 401.158 85.2533 401.723 85.584C402.288 85.9147 402.71 86.3307 402.987 86.832V85.232H404.459V94H402.987V92.368C402.699 92.88 402.267 93.3067 401.691 93.648C401.126 93.9787 400.464 94.144 399.707 94.144C398.928 94.144 398.224 93.952 397.595 93.568C396.966 93.184 396.47 92.6453 396.107 91.952C395.744 91.2587 395.563 90.4693 395.563 89.584ZM402.987 89.6C402.987 88.9387 402.854 88.3627 402.587 87.872C402.32 87.3813 401.958 87.008 401.499 86.752C401.051 86.4853 400.555 86.352 400.011 86.352C399.467 86.352 398.971 86.48 398.523 86.736C398.075 86.992 397.718 87.3653 397.451 87.856C397.184 88.3467 397.051 88.9227 397.051 89.584C397.051 90.256 397.184 90.8427 397.451 91.344C397.718 91.8347 398.075 92.2133 398.523 92.48C398.971 92.736 399.467 92.864 400.011 92.864C400.555 92.864 401.051 92.736 401.499 92.48C401.958 92.2133 402.32 91.8347 402.587 91.344C402.854 90.8427 402.987 90.2613 402.987 89.6ZM408.626 82.16V94H407.17V82.16H408.626Z" fill="black"/>
<rect x="434" y="76" width="24" height="24" rx="12" fill="#D9DBE9"/>
<path d="M472.688 92.816H476.592V94H471.232V82.848H472.688V92.816ZM486.388 89.28C486.388 89.5573 486.372 89.8507 486.34 90.16H479.332C479.386 91.024 479.679 91.7013 480.212 92.192C480.756 92.672 481.412 92.912 482.18 92.912C482.81 92.912 483.332 92.768 483.748 92.48C484.175 92.1813 484.474 91.7867 484.644 91.296H486.212C485.978 92.1387 485.508 92.8267 484.804 93.36C484.1 93.8827 483.226 94.144 482.18 94.144C481.348 94.144 480.602 93.9573 479.94 93.584C479.29 93.2107 478.778 92.6827 478.404 92C478.031 91.3067 477.844 90.5067 477.844 89.6C477.844 88.6933 478.026 87.8987 478.388 87.216C478.751 86.5333 479.258 86.0107 479.908 85.648C480.57 85.2747 481.327 85.088 482.18 85.088C483.012 85.088 483.748 85.2693 484.388 85.632C485.028 85.9947 485.519 86.496 485.86 87.136C486.212 87.7653 486.388 88.48 486.388 89.28ZM484.884 88.976C484.884 88.4213 484.762 87.9467 484.516 87.552C484.271 87.1467 483.935 86.8427 483.508 86.64C483.092 86.4267 482.628 86.32 482.116 86.32C481.38 86.32 480.751 86.5547 480.228 87.024C479.716 87.4933 479.423 88.144 479.348 88.976H484.884ZM491.824 92.656L494.544 85.232H496.096L492.656 94H490.96L487.52 85.232H489.088L491.824 92.656ZM505.779 89.28C505.779 89.5573 505.763 89.8507 505.731 90.16H498.723C498.776 91.024 499.07 91.7013 499.603 92.192C500.147 92.672 500.803 92.912 501.571 92.912C502.2 92.912 502.723 92.768 503.139 92.48C503.566 92.1813 503.864 91.7867 504.035 91.296H505.603C505.368 92.1387 504.899 92.8267 504.195 93.36C503.491 93.8827 502.616 94.144 501.571 94.144C500.739 94.144 499.992 93.9573 499.331 93.584C498.68 93.2107 498.168 92.6827 497.795 92C497.422 91.3067 497.235 90.5067 497.235 89.6C497.235 88.6933 497.416 87.8987 497.779 87.216C498.142 86.5333 498.648 86.0107 499.299 85.648C499.96 85.2747 500.718 85.088 501.571 85.088C502.403 85.088 503.139 85.2693 503.779 85.632C504.419 85.9947 504.91 86.496 505.251 87.136C505.603 87.7653 505.779 88.48 505.779 89.28ZM504.275 88.976C504.275 88.4213 504.152 87.9467 503.907 87.552C503.662 87.1467 503.326 86.8427 502.899 86.64C502.483 86.4267 502.019 86.32 501.507 86.32C500.771 86.32 500.142 86.5547 499.619 87.024C499.107 87.4933 498.814 88.144 498.739 88.976H504.275ZM509.407 82.16V94H507.951V82.16H509.407ZM515.242 94.144C514.57 94.144 513.968 94.032 513.434 93.808C512.901 93.5733 512.48 93.2533 512.17 92.848C511.861 92.432 511.69 91.9573 511.658 91.424H513.162C513.205 91.8613 513.408 92.2187 513.77 92.496C514.144 92.7733 514.629 92.912 515.226 92.912C515.781 92.912 516.218 92.7893 516.538 92.544C516.858 92.2987 517.018 91.9893 517.018 91.616C517.018 91.232 516.848 90.9493 516.506 90.768C516.165 90.576 515.637 90.3893 514.922 90.208C514.272 90.0373 513.738 89.8667 513.322 89.696C512.917 89.5147 512.565 89.2533 512.266 88.912C511.978 88.56 511.834 88.1013 511.834 87.536C511.834 87.088 511.968 86.6773 512.234 86.304C512.501 85.9307 512.88 85.6373 513.37 85.424C513.861 85.2 514.421 85.088 515.05 85.088C516.021 85.088 516.805 85.3333 517.402 85.824C518 86.3147 518.32 86.9867 518.362 87.84H516.906C516.874 87.3813 516.688 87.0133 516.346 86.736C516.016 86.4587 515.568 86.32 515.002 86.32C514.48 86.32 514.064 86.432 513.754 86.656C513.445 86.88 513.29 87.1733 513.29 87.536C513.29 87.824 513.381 88.064 513.562 88.256C513.754 88.4373 513.989 88.5867 514.266 88.704C514.554 88.8107 514.949 88.9333 515.45 89.072C516.08 89.2427 516.592 89.4133 516.986 89.584C517.381 89.744 517.717 89.9893 517.994 90.32C518.282 90.6507 518.432 91.0827 518.442 91.616C518.442 92.096 518.309 92.528 518.042 92.912C517.776 93.296 517.397 93.6 516.906 93.824C516.426 94.0373 515.872 94.144 515.242 94.144Z" fill="black"/>
<rect x="544" y="76" width="24" height="24" rx="12" fill="#D9DBE9"/>
<path d="M584.768 94.112C584.032 94.112 583.371 93.984 582.784 93.728C582.208 93.4613 581.755 93.0987 581.424 92.64C581.093 92.1707 580.923 91.632 580.912 91.024H582.464C582.517 91.5467 582.731 91.9893 583.104 92.352C583.488 92.704 584.043 92.88 584.768 92.88C585.461 92.88 586.005 92.7093 586.4 92.368C586.805 92.016 587.008 91.568 587.008 91.024C587.008 90.5973 586.891 90.2507 586.656 89.984C586.421 89.7173 586.128 89.5147 585.776 89.376C585.424 89.2373 584.949 89.088 584.352 88.928C583.616 88.736 583.024 88.544 582.576 88.352C582.139 88.16 581.76 87.8613 581.44 87.456C581.131 87.04 580.976 86.4853 580.976 85.792C580.976 85.184 581.131 84.6453 581.44 84.176C581.749 83.7067 582.181 83.344 582.736 83.088C583.301 82.832 583.947 82.704 584.672 82.704C585.717 82.704 586.571 82.9653 587.232 83.488C587.904 84.0107 588.283 84.704 588.368 85.568H586.768C586.715 85.1413 586.491 84.768 586.096 84.448C585.701 84.1173 585.179 83.952 584.528 83.952C583.92 83.952 583.424 84.112 583.04 84.432C582.656 84.7413 582.464 85.1787 582.464 85.744C582.464 86.1493 582.576 86.48 582.8 86.736C583.035 86.992 583.317 87.1893 583.648 87.328C583.989 87.456 584.464 87.6053 585.072 87.776C585.808 87.9787 586.4 88.1813 586.848 88.384C587.296 88.576 587.68 88.88 588 89.296C588.32 89.7013 588.48 90.256 588.48 90.96C588.48 91.504 588.336 92.016 588.048 92.496C587.76 92.976 587.333 93.3653 586.768 93.664C586.203 93.9627 585.536 94.112 584.768 94.112ZM598.649 85.232V94H597.193V92.704C596.915 93.152 596.526 93.504 596.025 93.76C595.534 94.0053 594.99 94.128 594.393 94.128C593.71 94.128 593.097 93.9893 592.553 93.712C592.009 93.424 591.577 92.9973 591.257 92.432C590.947 91.8667 590.793 91.1787 590.793 90.368V85.232H592.233V90.176C592.233 91.04 592.451 91.7067 592.889 92.176C593.326 92.6347 593.923 92.864 594.681 92.864C595.459 92.864 596.073 92.624 596.521 92.144C596.969 91.664 597.193 90.9653 597.193 90.048V85.232H598.649ZM602.813 86.864C603.112 86.3413 603.549 85.9147 604.125 85.584C604.701 85.2533 605.357 85.088 606.093 85.088C606.882 85.088 607.592 85.2747 608.221 85.648C608.85 86.0213 609.346 86.5493 609.709 87.232C610.072 87.904 610.253 88.688 610.253 89.584C610.253 90.4693 610.072 91.2587 609.709 91.952C609.346 92.6453 608.845 93.184 608.205 93.568C607.576 93.952 606.872 94.144 606.093 94.144C605.336 94.144 604.669 93.9787 604.093 93.648C603.528 93.3173 603.101 92.896 602.813 92.384V94H601.357V82.16H602.813V86.864ZM608.765 89.584C608.765 88.9227 608.632 88.3467 608.365 87.856C608.098 87.3653 607.736 86.992 607.277 86.736C606.829 86.48 606.333 86.352 605.789 86.352C605.256 86.352 604.76 86.4853 604.301 86.752C603.853 87.008 603.49 87.3867 603.213 87.888C602.946 88.3787 602.813 88.9493 602.813 89.6C602.813 90.2613 602.946 90.8427 603.213 91.344C603.49 91.8347 603.853 92.2133 604.301 92.48C604.76 92.736 605.256 92.864 605.789 92.864C606.333 92.864 606.829 92.736 607.277 92.48C607.736 92.2133 608.098 91.8347 608.365 91.344C608.632 90.8427 608.765 90.256 608.765 89.584ZM615.524 94.144C614.852 94.144 614.249 94.032 613.716 93.808C613.182 93.5733 612.761 93.2533 612.452 92.848C612.142 92.432 611.972 91.9573 611.94 91.424H613.444C613.486 91.8613 613.689 92.2187 614.052 92.496C614.425 92.7733 614.91 92.912 615.508 92.912C616.062 92.912 616.5 92.7893 616.82 92.544C617.14 92.2987 617.3 91.9893 617.3 91.616C617.3 91.232 617.129 90.9493 616.788 90.768C616.446 90.576 615.918 90.3893 615.204 90.208C614.553 90.0373 614.02 89.8667 613.604 89.696C613.198 89.5147 612.846 89.2533 612.548 88.912C612.26 88.56 612.116 88.1013 612.116 87.536C612.116 87.088 612.249 86.6773 612.516 86.304C612.782 85.9307 613.161 85.6373 613.652 85.424C614.142 85.2 614.702 85.088 615.332 85.088C616.302 85.088 617.086 85.3333 617.684 85.824C618.281 86.3147 618.601 86.9867 618.644 87.84H617.188C617.156 87.3813 616.969 87.0133 616.628 86.736C616.297 86.4587 615.849 86.32 615.284 86.32C614.761 86.32 614.345 86.432 614.036 86.656C613.726 86.88 613.572 87.1733 613.572 87.536C613.572 87.824 613.662 88.064 613.844 88.256C614.036 88.4373 614.27 88.5867 614.548 88.704C614.836 88.8107 615.23 88.9333 615.732 89.072C616.361 89.2427 616.873 89.4133 617.268 89.584C617.662 89.744 617.998 89.9893 618.276 90.32C618.564 90.6507 618.713 91.0827 618.724 91.616C618.724 92.096 618.59 92.528 618.324 92.912C618.057 93.296 617.678 93.6 617.188 93.824C616.708 94.0373 616.153 94.144 615.524 94.144ZM621.781 83.808C621.504 83.808 621.269 83.712 621.077 83.52C620.885 83.328 620.789 83.0933 620.789 82.816C620.789 82.5387 620.885 82.304 621.077 82.112C621.269 81.92 621.504 81.824 621.781 81.824C622.048 81.824 622.272 81.92 622.453 82.112C622.645 82.304 622.741 82.5387 622.741 82.816C622.741 83.0933 622.645 83.328 622.453 83.52C622.272 83.712 622.048 83.808 621.781 83.808ZM622.485 85.232V94H621.029V85.232H622.485ZM624.672 89.584C624.672 88.688 624.854 87.904 625.216 87.232C625.579 86.5493 626.075 86.0213 626.704 85.648C627.344 85.2747 628.059 85.088 628.848 85.088C629.531 85.088 630.166 85.248 630.752 85.568C631.339 85.8773 631.787 86.288 632.096 86.8V82.16H633.568V94H632.096V92.352C631.808 92.8747 631.382 93.3067 630.816 93.648C630.251 93.9787 629.59 94.144 628.832 94.144C628.054 94.144 627.344 93.952 626.704 93.568C626.075 93.184 625.579 92.6453 625.216 91.952C624.854 91.2587 624.672 90.4693 624.672 89.584ZM632.096 89.6C632.096 88.9387 631.963 88.3627 631.696 87.872C631.43 87.3813 631.067 87.008 630.608 86.752C630.16 86.4853 629.664 86.352 629.12 86.352C628.576 86.352 628.08 86.48 627.632 86.736C627.184 86.992 626.827 87.3653 626.56 87.856C626.294 88.3467 626.16 88.9227 626.16 89.584C626.16 90.256 626.294 90.8427 626.56 91.344C626.827 91.8347 627.184 92.2133 627.632 92.48C628.08 92.736 628.576 92.864 629.12 92.864C629.664 92.864 630.16 92.736 630.608 92.48C631.067 92.2133 631.43 91.8347 631.696 91.344C631.963 90.8427 632.096 90.2613 632.096 89.6ZM637.031 83.808C636.754 83.808 636.519 83.712 636.327 83.52C636.135 83.328 636.039 83.0933 636.039 82.816C636.039 82.5387 636.135 82.304 636.327 82.112C636.519 81.92 636.754 81.824 637.031 81.824C637.298 81.824 637.522 81.92 637.703 82.112C637.895 82.304 637.991 82.5387 637.991 82.816C637.991 83.0933 637.895 83.328 637.703 83.52C637.522 83.712 637.298 83.808 637.031 83.808ZM637.735 85.232V94H636.279V85.232H637.735ZM639.922 89.584C639.922 88.688 640.104 87.904 640.466 87.232C640.829 86.5493 641.325 86.0213 641.954 85.648C642.594 85.2747 643.304 85.088 644.082 85.088C644.85 85.088 645.517 85.2533 646.082 85.584C646.648 85.9147 647.069 86.3307 647.346 86.832V85.232H648.818V94H647.346V92.368C647.058 92.88 646.626 93.3067 646.05 93.648C645.485 93.9787 644.824 94.144 644.066 94.144C643.288 94.144 642.584 93.952 641.954 93.568C641.325 93.184 640.829 92.6453 640.466 91.952C640.104 91.2587 639.922 90.4693 639.922 89.584ZM647.346 89.6C647.346 88.9387 647.213 88.3627 646.946 87.872C646.68 87.3813 646.317 87.008 645.858 86.752C645.41 86.4853 644.914 86.352 644.37 86.352C643.826 86.352 643.33 86.48 642.882 86.736C642.434 86.992 642.077 87.3653 641.81 87.856C641.544 88.3467 641.41 88.9227 641.41 89.584C641.41 90.256 641.544 90.8427 641.81 91.344C642.077 91.8347 642.434 92.2133 642.882 92.48C643.33 92.736 643.826 92.864 644.37 92.864C644.914 92.864 645.41 92.736 645.858 92.48C646.317 92.2133 646.68 91.8347 646.946 91.344C647.213 90.8427 647.346 90.2613 647.346 89.6ZM652.985 86.656C653.241 86.1547 653.604 85.7653 654.073 85.488C654.553 85.2107 655.134 85.072 655.817 85.072V86.576H655.433C653.801 86.576 652.985 87.4613 652.985 89.232V94H651.529V85.232H652.985V86.656ZM658.5 83.808C658.222 83.808 657.988 83.712 657.796 83.52C657.604 83.328 657.508 83.0933 657.508 82.816C657.508 82.5387 657.604 82.304 657.796 82.112C657.988 81.92 658.222 81.824 658.5 81.824C658.766 81.824 658.99 81.92 659.172 82.112C659.364 82.304 659.46 82.5387 659.46 82.816C659.46 83.0933 659.364 83.328 659.172 83.52C658.99 83.712 658.766 83.808 658.5 83.808ZM659.204 85.232V94H657.748V85.232H659.204ZM669.935 89.28C669.935 89.5573 669.919 89.8507 669.887 90.16H662.879C662.932 91.024 663.226 91.7013 663.759 92.192C664.303 92.672 664.959 92.912 665.727 92.912C666.356 92.912 666.879 92.768 667.295 92.48C667.722 92.1813 668.02 91.7867 668.191 91.296H669.759C669.524 92.1387 669.055 92.8267 668.351 93.36C667.647 93.8827 666.772 94.144 665.727 94.144C664.895 94.144 664.148 93.9573 663.487 93.584C662.836 93.2107 662.324 92.6827 661.951 92C661.578 91.3067 661.391 90.5067 661.391 89.6C661.391 88.6933 661.572 87.8987 661.935 87.216C662.298 86.5333 662.804 86.0107 663.455 85.648C664.116 85.2747 664.874 85.088 665.727 85.088C666.559 85.088 667.295 85.2693 667.935 85.632C668.575 85.9947 669.066 86.496 669.407 87.136C669.759 87.7653 669.935 88.48 669.935 89.28ZM668.431 88.976C668.431 88.4213 668.308 87.9467 668.063 87.552C667.818 87.1467 667.482 86.8427 667.055 86.64C666.639 86.4267 666.175 86.32 665.663 86.32C664.927 86.32 664.298 86.5547 663.775 87.024C663.263 87.4933 662.97 88.144 662.895 88.976H668.431ZM675.211 94.144C674.539 94.144 673.936 94.032 673.403 93.808C672.87 93.5733 672.448 93.2533 672.139 92.848C671.83 92.432 671.659 91.9573 671.627 91.424H673.131C673.174 91.8613 673.376 92.2187 673.739 92.496C674.112 92.7733 674.598 92.912 675.195 92.912C675.75 92.912 676.187 92.7893 676.507 92.544C676.827 92.2987 676.987 91.9893 676.987 91.616C676.987 91.232 676.816 90.9493 676.475 90.768C676.134 90.576 675.606 90.3893 674.891 90.208C674.24 90.0373 673.707 89.8667 673.291 89.696C672.886 89.5147 672.534 89.2533 672.235 88.912C671.947 88.56 671.803 88.1013 671.803 87.536C671.803 87.088 671.936 86.6773 672.203 86.304C672.47 85.9307 672.848 85.6373 673.339 85.424C673.83 85.2 674.39 85.088 675.019 85.088C675.99 85.088 676.774 85.3333 677.371 85.824C677.968 86.3147 678.288 86.9867 678.331 87.84H676.875C676.843 87.3813 676.656 87.0133 676.315 86.736C675.984 86.4587 675.536 86.32 674.971 86.32C674.448 86.32 674.032 86.432 673.723 86.656C673.414 86.88 673.259 87.1733 673.259 87.536C673.259 87.824 673.35 88.064 673.531 88.256C673.723 88.4373 673.958 88.5867 674.235 88.704C674.523 88.8107 674.918 88.9333 675.419 89.072C676.048 89.2427 676.56 89.4133 676.955 89.584C677.35 89.744 677.686 89.9893 677.963 90.32C678.251 90.6507 678.4 91.0827 678.411 91.616C678.411 92.096 678.278 92.528 678.011 92.912C677.744 93.296 677.366 93.6 676.875 93.824C676.395 94.0373 675.84 94.144 675.211 94.144Z" fill="black"/>
<g clip-path="url(#clip0_8507_85924)">
<path d="M58.704 138.848C59.92 138.848 60.9707 139.077 61.856 139.536C62.752 139.984 63.4347 140.629 63.904 141.472C64.384 142.315 64.624 143.307 64.624 144.448C64.624 145.589 64.384 146.581 63.904 147.424C63.4347 148.256 62.752 148.896 61.856 149.344C60.9707 149.781 59.92 150 58.704 150H55.232V138.848H58.704ZM58.704 148.8C60.144 148.8 61.2427 148.421 62 147.664C62.7573 146.896 63.136 145.824 63.136 144.448C63.136 143.061 62.752 141.979 61.984 141.2C61.2267 140.421 60.1333 140.032 58.704 140.032H56.688V148.8H58.704ZM74.7945 145.28C74.7945 145.557 74.7785 145.851 74.7465 146.16H67.7385C67.7918 147.024 68.0852 147.701 68.6185 148.192C69.1625 148.672 69.8185 148.912 70.5865 148.912C71.2158 148.912 71.7385 148.768 72.1545 148.48C72.5812 148.181 72.8798 147.787 73.0505 147.296H74.6185C74.3838 148.139 73.9145 148.827 73.2105 149.36C72.5065 149.883 71.6318 150.144 70.5865 150.144C69.7545 150.144 69.0078 149.957 68.3465 149.584C67.6958 149.211 67.1838 148.683 66.8105 148C66.4372 147.307 66.2505 146.507 66.2505 145.6C66.2505 144.693 66.4318 143.899 66.7945 143.216C67.1572 142.533 67.6638 142.011 68.3145 141.648C68.9758 141.275 69.7332 141.088 70.5865 141.088C71.4185 141.088 72.1545 141.269 72.7945 141.632C73.4345 141.995 73.9252 142.496 74.2665 143.136C74.6185 143.765 74.7945 144.48 74.7945 145.28ZM73.2905 144.976C73.2905 144.421 73.1678 143.947 72.9225 143.552C72.6772 143.147 72.3412 142.843 71.9145 142.64C71.4985 142.427 71.0345 142.32 70.5225 142.32C69.7865 142.32 69.1572 142.555 68.6345 143.024C68.1225 143.493 67.8292 144.144 67.7545 144.976H73.2905ZM78.4224 142.848C78.7104 142.347 79.137 141.931 79.7024 141.6C80.2784 141.259 80.945 141.088 81.7024 141.088C82.481 141.088 83.185 141.275 83.8144 141.648C84.4544 142.021 84.9557 142.549 85.3184 143.232C85.681 143.904 85.8624 144.688 85.8624 145.584C85.8624 146.469 85.681 147.259 85.3184 147.952C84.9557 148.645 84.4544 149.184 83.8144 149.568C83.185 149.952 82.481 150.144 81.7024 150.144C80.9557 150.144 80.2944 149.979 79.7184 149.648C79.153 149.307 78.721 148.885 78.4224 148.384V154.16H76.9664V141.232H78.4224V142.848ZM84.3744 145.584C84.3744 144.923 84.241 144.347 83.9744 143.856C83.7077 143.365 83.345 142.992 82.8864 142.736C82.4384 142.48 81.9424 142.352 81.3984 142.352C80.865 142.352 80.369 142.485 79.9104 142.752C79.4624 143.008 79.0997 143.387 78.8224 143.888C78.5557 144.379 78.4224 144.949 78.4224 145.6C78.4224 146.261 78.5557 146.843 78.8224 147.344C79.0997 147.835 79.4624 148.213 79.9104 148.48C80.369 148.736 80.865 148.864 81.3984 148.864C81.9424 148.864 82.4384 148.736 82.8864 148.48C83.345 148.213 83.7077 147.835 83.9744 147.344C84.241 146.843 84.3744 146.256 84.3744 145.584ZM87.4849 145.584C87.4849 144.688 87.6662 143.904 88.0289 143.232C88.3915 142.549 88.8875 142.021 89.5169 141.648C90.1569 141.275 90.8662 141.088 91.6449 141.088C92.4129 141.088 93.0795 141.253 93.6449 141.584C94.2102 141.915 94.6315 142.331 94.9089 142.832V141.232H96.3809V150H94.9089V148.368C94.6209 148.88 94.1889 149.307 93.6129 149.648C93.0475 149.979 92.3862 150.144 91.6289 150.144C90.8502 150.144 90.1462 149.952 89.5169 149.568C88.8875 149.184 88.3915 148.645 88.0289 147.952C87.6662 147.259 87.4849 146.469 87.4849 145.584ZM94.9089 145.6C94.9089 144.939 94.7755 144.363 94.5089 143.872C94.2422 143.381 93.8795 143.008 93.4209 142.752C92.9729 142.485 92.4769 142.352 91.9329 142.352C91.3889 142.352 90.8929 142.48 90.4449 142.736C89.9969 142.992 89.6395 143.365 89.3729 143.856C89.1062 144.347 88.9729 144.923 88.9729 145.584C88.9729 146.256 89.1062 146.843 89.3729 147.344C89.6395 147.835 89.9969 148.213 90.4449 148.48C90.8929 148.736 91.3889 148.864 91.9329 148.864C92.4769 148.864 92.9729 148.736 93.4209 148.48C93.8795 148.213 94.2422 147.835 94.5089 147.344C94.7755 146.843 94.9089 146.261 94.9089 145.6ZM100.547 142.656C100.803 142.155 101.166 141.765 101.635 141.488C102.115 141.211 102.697 141.072 103.379 141.072V142.576H102.995C101.363 142.576 100.547 143.461 100.547 145.232V150H99.0914V141.232H100.547V142.656ZM107.086 142.432V147.6C107.086 148.027 107.177 148.331 107.358 148.512C107.539 148.683 107.854 148.768 108.302 148.768H109.374V150H108.062C107.251 150 106.643 149.813 106.238 149.44C105.833 149.067 105.63 148.453 105.63 147.6V142.432H104.494V141.232H105.63V139.024H107.086V141.232H109.374V142.432H107.086ZM121.932 141.072C122.615 141.072 123.223 141.216 123.756 141.504C124.29 141.781 124.711 142.203 125.02 142.768C125.33 143.333 125.484 144.021 125.484 144.832V150H124.044V145.04C124.044 144.165 123.826 143.499 123.388 143.04C122.962 142.571 122.38 142.336 121.644 142.336C120.887 142.336 120.284 142.581 119.836 143.072C119.388 143.552 119.164 144.251 119.164 145.168V150H117.724V145.04C117.724 144.165 117.506 143.499 117.068 143.04C116.642 142.571 116.06 142.336 115.324 142.336C114.567 142.336 113.964 142.581 113.516 143.072C113.068 143.552 112.844 144.251 112.844 145.168V150H111.388V141.232H112.844V142.496C113.132 142.037 113.516 141.685 113.996 141.44C114.487 141.195 115.026 141.072 115.612 141.072C116.348 141.072 116.999 141.237 117.564 141.568C118.13 141.899 118.551 142.384 118.828 143.024C119.074 142.405 119.479 141.925 120.044 141.584C120.61 141.243 121.239 141.072 121.932 141.072ZM136.123 145.28C136.123 145.557 136.107 145.851 136.075 146.16H129.067C129.12 147.024 129.413 147.701 129.947 148.192C130.491 148.672 131.147 148.912 131.915 148.912C132.544 148.912 133.067 148.768 133.483 148.48C133.909 148.181 134.208 147.787 134.379 147.296H135.947C135.712 148.139 135.243 148.827 134.539 149.36C133.835 149.883 132.96 150.144 131.915 150.144C131.083 150.144 130.336 149.957 129.675 149.584C129.024 149.211 128.512 148.683 128.139 148C127.765 147.307 127.579 146.507 127.579 145.6C127.579 144.693 127.76 143.899 128.123 143.216C128.485 142.533 128.992 142.011 129.643 141.648C130.304 141.275 131.061 141.088 131.915 141.088C132.747 141.088 133.483 141.269 134.123 141.632C134.763 141.995 135.253 142.496 135.595 143.136C135.947 143.765 136.123 144.48 136.123 145.28ZM134.619 144.976C134.619 144.421 134.496 143.947 134.251 143.552C134.005 143.147 133.669 142.843 133.243 142.64C132.827 142.427 132.363 142.32 131.851 142.32C131.115 142.32 130.485 142.555 129.963 143.024C129.451 143.493 129.157 144.144 129.083 144.976H134.619ZM142.567 141.072C143.633 141.072 144.497 141.397 145.159 142.048C145.82 142.688 146.151 143.616 146.151 144.832V150H144.711V145.04C144.711 144.165 144.492 143.499 144.055 143.04C143.617 142.571 143.02 142.336 142.263 142.336C141.495 142.336 140.881 142.576 140.423 143.056C139.975 143.536 139.751 144.235 139.751 145.152V150H138.295V141.232H139.751V142.48C140.039 142.032 140.428 141.685 140.919 141.44C141.42 141.195 141.969 141.072 142.567 141.072ZM150.555 142.432V147.6C150.555 148.027 150.646 148.331 150.827 148.512C151.008 148.683 151.323 148.768 151.771 148.768H152.843V150H151.531C150.72 150 150.112 149.813 149.707 149.44C149.302 149.067 149.099 148.453 149.099 147.6V142.432H147.963V141.232H149.099V139.024H150.555V141.232H152.843V142.432H150.555Z" fill="#6E7191"/>
<path d="M78.768 202.112C78.032 202.112 77.3707 201.984 76.784 201.728C76.208 201.461 75.7547 201.099 75.424 200.64C75.0933 200.171 74.9227 199.632 74.912 199.024H76.464C76.5173 199.547 76.7307 199.989 77.104 200.352C77.488 200.704 78.0427 200.88 78.768 200.88C79.4613 200.88 80.0053 200.709 80.4 200.368C80.8053 200.016 81.008 199.568 81.008 199.024C81.008 198.597 80.8907 198.251 80.656 197.984C80.4213 197.717 80.128 197.515 79.776 197.376C79.424 197.237 78.9493 197.088 78.352 196.928C77.616 196.736 77.024 196.544 76.576 196.352C76.1387 196.16 75.76 195.861 75.44 195.456C75.1307 195.04 74.976 194.485 74.976 193.792C74.976 193.184 75.1307 192.645 75.44 192.176C75.7493 191.707 76.1813 191.344 76.736 191.088C77.3013 190.832 77.9467 190.704 78.672 190.704C79.7173 190.704 80.5707 190.965 81.232 191.488C81.904 192.011 82.2827 192.704 82.368 193.568H80.768C80.7147 193.141 80.4907 192.768 80.096 192.448C79.7013 192.117 79.1787 191.952 78.528 191.952C77.92 191.952 77.424 192.112 77.04 192.432C76.656 192.741 76.464 193.179 76.464 193.744C76.464 194.149 76.576 194.48 76.8 194.736C77.0347 194.992 77.3173 195.189 77.648 195.328C77.9893 195.456 78.464 195.605 79.072 195.776C79.808 195.979 80.4 196.181 80.848 196.384C81.296 196.576 81.68 196.88 82 197.296C82.32 197.701 82.48 198.256 82.48 198.96C82.48 199.504 82.336 200.016 82.048 200.496C81.76 200.976 81.3333 201.365 80.768 201.664C80.2027 201.963 79.536 202.112 78.768 202.112ZM92.8726 197.28C92.8726 197.557 92.8566 197.851 92.8246 198.16H85.8166C85.87 199.024 86.1633 199.701 86.6966 200.192C87.2406 200.672 87.8966 200.912 88.6646 200.912C89.294 200.912 89.8166 200.768 90.2326 200.48C90.6593 200.181 90.958 199.787 91.1286 199.296H92.6966C92.462 200.139 91.9926 200.827 91.2886 201.36C90.5846 201.883 89.71 202.144 88.6646 202.144C87.8326 202.144 87.086 201.957 86.4246 201.584C85.774 201.211 85.262 200.683 84.8886 200C84.5153 199.307 84.3286 198.507 84.3286 197.6C84.3286 196.693 84.51 195.899 84.8726 195.216C85.2353 194.533 85.742 194.011 86.3926 193.648C87.054 193.275 87.8113 193.088 88.6646 193.088C89.4966 193.088 90.2326 193.269 90.8726 193.632C91.5126 193.995 92.0033 194.496 92.3446 195.136C92.6966 195.765 92.8726 196.48 92.8726 197.28ZM91.3686 196.976C91.3686 196.421 91.246 195.947 91.0006 195.552C90.7553 195.147 90.4193 194.843 89.9926 194.64C89.5766 194.427 89.1126 194.32 88.6006 194.32C87.8646 194.32 87.2353 194.555 86.7126 195.024C86.2006 195.493 85.9073 196.144 85.8326 196.976H91.3686ZM96.5005 190.16V202H95.0445V190.16H96.5005ZM107.232 197.28C107.232 197.557 107.216 197.851 107.184 198.16H100.176C100.229 199.024 100.523 199.701 101.056 200.192C101.6 200.672 102.256 200.912 103.024 200.912C103.653 200.912 104.176 200.768 104.592 200.48C105.019 200.181 105.317 199.787 105.488 199.296H107.056C106.821 200.139 106.352 200.827 105.648 201.36C104.944 201.883 104.069 202.144 103.024 202.144C102.192 202.144 101.445 201.957 100.784 201.584C100.133 201.211 99.6213 200.683 99.248 200C98.8747 199.307 98.688 198.507 98.688 197.6C98.688 196.693 98.8693 195.899 99.232 195.216C99.5947 194.533 100.101 194.011 100.752 193.648C101.413 193.275 102.171 193.088 103.024 193.088C103.856 193.088 104.592 193.269 105.232 193.632C105.872 193.995 106.363 194.496 106.704 195.136C107.056 195.765 107.232 196.48 107.232 197.28ZM105.728 196.976C105.728 196.421 105.605 195.947 105.36 195.552C105.115 195.147 104.779 194.843 104.352 194.64C103.936 194.427 103.472 194.32 102.96 194.32C102.224 194.32 101.595 194.555 101.072 195.024C100.56 195.493 100.267 196.144 100.192 196.976H105.728ZM108.86 197.6C108.86 196.693 109.041 195.904 109.404 195.232C109.767 194.549 110.268 194.021 110.908 193.648C111.559 193.275 112.3 193.088 113.132 193.088C114.209 193.088 115.095 193.349 115.788 193.872C116.492 194.395 116.956 195.12 117.18 196.048H115.612C115.463 195.515 115.169 195.093 114.732 194.784C114.305 194.475 113.772 194.32 113.132 194.32C112.3 194.32 111.628 194.608 111.116 195.184C110.604 195.749 110.348 196.555 110.348 197.6C110.348 198.656 110.604 199.472 111.116 200.048C111.628 200.624 112.3 200.912 113.132 200.912C113.772 200.912 114.305 200.763 114.732 200.464C115.159 200.165 115.452 199.739 115.612 199.184H117.18C116.945 200.08 116.476 200.8 115.772 201.344C115.068 201.877 114.188 202.144 113.132 202.144C112.3 202.144 111.559 201.957 110.908 201.584C110.268 201.211 109.767 200.683 109.404 200C109.041 199.317 108.86 198.517 108.86 197.6ZM121.149 194.432V199.6C121.149 200.027 121.239 200.331 121.421 200.512C121.602 200.683 121.917 200.768 122.365 200.768H123.437V202H122.125C121.314 202 120.706 201.813 120.301 201.44C119.895 201.067 119.693 200.453 119.693 199.6V194.432H118.557V193.232H119.693V191.024H121.149V193.232H123.437V194.432H121.149Z" fill="#A0A3BD"/>
<path d="M444.926 194L437.963 200.963L431 194" stroke="#6E7191" stroke-width="2" stroke-linecap="round" stroke-linejoin="round"/>
<rect x="54.5" y="164.5" width="415" height="63" rx="7.5" stroke="#D9DBE9" stroke-linecap="round" stroke-linejoin="round"/>
</g>
<path d="M58.172 276.098C57.528 276.098 56.9493 275.986 56.436 275.762C55.932 275.529 55.5353 275.211 55.246 274.81C54.9567 274.399 54.8073 273.928 54.798 273.396H56.156C56.2027 273.853 56.3893 274.241 56.716 274.558C57.052 274.866 57.5373 275.02 58.172 275.02C58.7787 275.02 59.2547 274.871 59.6 274.572C59.9547 274.264 60.132 273.872 60.132 273.396C60.132 273.023 60.0293 272.719 59.824 272.486C59.6187 272.253 59.362 272.075 59.054 271.954C58.746 271.833 58.3307 271.702 57.808 271.562C57.164 271.394 56.646 271.226 56.254 271.058C55.8713 270.89 55.54 270.629 55.26 270.274C54.9893 269.91 54.854 269.425 54.854 268.818C54.854 268.286 54.9893 267.815 55.26 267.404C55.5307 266.993 55.9087 266.676 56.394 266.452C56.8887 266.228 57.4533 266.116 58.088 266.116C59.0027 266.116 59.7493 266.345 60.328 266.802C60.916 267.259 61.2473 267.866 61.322 268.622H59.922C59.8753 268.249 59.6793 267.922 59.334 267.642C58.9887 267.353 58.5313 267.208 57.962 267.208C57.43 267.208 56.996 267.348 56.66 267.628C56.324 267.899 56.156 268.281 56.156 268.776C56.156 269.131 56.254 269.42 56.45 269.644C56.6553 269.868 56.9027 270.041 57.192 270.162C57.4907 270.274 57.906 270.405 58.438 270.554C59.082 270.731 59.6 270.909 59.992 271.086C60.384 271.254 60.72 271.52 61 271.884C61.28 272.239 61.42 272.724 61.42 273.34C61.42 273.816 61.294 274.264 61.042 274.684C60.79 275.104 60.4167 275.445 59.922 275.706C59.4273 275.967 58.844 276.098 58.172 276.098ZM70.5448 271.87C70.5448 272.113 70.5308 272.369 70.5028 272.64H64.3708C64.4175 273.396 64.6741 273.989 65.1408 274.418C65.6168 274.838 66.1908 275.048 66.8628 275.048C67.4135 275.048 67.8708 274.922 68.2348 274.67C68.6081 274.409 68.8695 274.063 69.0188 273.634H70.3908C70.1855 274.371 69.7748 274.973 69.1588 275.44C68.5428 275.897 67.7775 276.126 66.8628 276.126C66.1348 276.126 65.4815 275.963 64.9028 275.636C64.3335 275.309 63.8855 274.847 63.5588 274.25C63.2321 273.643 63.0688 272.943 63.0688 272.15C63.0688 271.357 63.2275 270.661 63.5448 270.064C63.8621 269.467 64.3055 269.009 64.8748 268.692C65.4535 268.365 66.1161 268.202 66.8628 268.202C67.5908 268.202 68.2348 268.361 68.7948 268.678C69.3548 268.995 69.7841 269.434 70.0828 269.994C70.3908 270.545 70.5448 271.17 70.5448 271.87ZM69.2288 271.604C69.2288 271.119 69.1215 270.703 68.9068 270.358C68.6921 270.003 68.3981 269.737 68.0248 269.56C67.6608 269.373 67.2548 269.28 66.8068 269.28C66.1628 269.28 65.6121 269.485 65.1548 269.896C64.7068 270.307 64.4501 270.876 64.3848 271.604H69.2288ZM72.0004 272.136C72.0004 271.352 72.1591 270.666 72.4764 270.078C72.7938 269.481 73.2278 269.019 73.7784 268.692C74.3384 268.365 74.9591 268.202 75.6404 268.202C76.3124 268.202 76.8958 268.347 77.3904 268.636C77.8851 268.925 78.2538 269.289 78.4964 269.728V268.328H79.7844V276H78.4964V274.572C78.2444 275.02 77.8664 275.393 77.3624 275.692C76.8678 275.981 76.2891 276.126 75.6264 276.126C74.9451 276.126 74.3291 275.958 73.7784 275.622C73.2278 275.286 72.7938 274.815 72.4764 274.208C72.1591 273.601 72.0004 272.911 72.0004 272.136ZM78.4964 272.15C78.4964 271.571 78.3798 271.067 78.1464 270.638C77.9131 270.209 77.5958 269.882 77.1944 269.658C76.8024 269.425 76.3684 269.308 75.8924 269.308C75.4164 269.308 74.9824 269.42 74.5904 269.644C74.1984 269.868 73.8858 270.195 73.6524 270.624C73.4191 271.053 73.3024 271.557 73.3024 272.136C73.3024 272.724 73.4191 273.237 73.6524 273.676C73.8858 274.105 74.1984 274.437 74.5904 274.67C74.9824 274.894 75.4164 275.006 75.8924 275.006C76.3684 275.006 76.8024 274.894 77.1944 274.67C77.5958 274.437 77.9131 274.105 78.1464 273.676C78.3798 273.237 78.4964 272.729 78.4964 272.15ZM83.4614 269.574C83.6854 269.135 84.0027 268.795 84.4134 268.552C84.8334 268.309 85.342 268.188 85.9394 268.188V269.504H85.6034C84.1754 269.504 83.4614 270.279 83.4614 271.828V276H82.1874V268.328H83.4614V269.574ZM87.184 272.15C87.184 271.357 87.3427 270.666 87.66 270.078C87.9774 269.481 88.416 269.019 88.976 268.692C89.5454 268.365 90.194 268.202 90.922 268.202C91.8647 268.202 92.6394 268.431 93.246 268.888C93.862 269.345 94.268 269.98 94.464 270.792H93.092C92.9614 270.325 92.7047 269.957 92.322 269.686C91.9487 269.415 91.482 269.28 90.922 269.28C90.194 269.28 89.606 269.532 89.158 270.036C88.71 270.531 88.486 271.235 88.486 272.15C88.486 273.074 88.71 273.788 89.158 274.292C89.606 274.796 90.194 275.048 90.922 275.048C91.482 275.048 91.9487 274.917 92.322 274.656C92.6954 274.395 92.952 274.021 93.092 273.536H94.464C94.2587 274.32 93.848 274.95 93.232 275.426C92.616 275.893 91.846 276.126 90.922 276.126C90.194 276.126 89.5454 275.963 88.976 275.636C88.416 275.309 87.9774 274.847 87.66 274.25C87.3427 273.653 87.184 272.953 87.184 272.15ZM100.222 268.188C100.801 268.188 101.323 268.314 101.79 268.566C102.257 268.809 102.621 269.177 102.882 269.672C103.153 270.167 103.288 270.769 103.288 271.478V276H102.028V271.66C102.028 270.895 101.837 270.311 101.454 269.91C101.071 269.499 100.549 269.294 99.8859 269.294C99.2139 269.294 98.6773 269.504 98.2759 269.924C97.8839 270.344 97.6879 270.955 97.6879 271.758V276H96.4139V265.64H97.6879V269.42C97.9399 269.028 98.2853 268.725 98.7239 268.51C99.1719 268.295 99.6713 268.188 100.222 268.188Z" fill="#6E7191"/>
<rect x="54" y="298" width="24" height="24" rx="12" fill="#D9DBE9"/>
<path d="M97.536 304.848V306.032H92.688V309.792H96.624V310.976H92.688V316H91.232V304.848H97.536ZM100.297 305.808C100.019 305.808 99.7845 305.712 99.5925 305.52C99.4005 305.328 99.3045 305.093 99.3045 304.816C99.3045 304.539 99.4005 304.304 99.5925 304.112C99.7845 303.92 100.019 303.824 100.297 303.824C100.563 303.824 100.787 303.92 100.969 304.112C101.161 304.304 101.257 304.539 101.257 304.816C101.257 305.093 101.161 305.328 100.969 305.52C100.787 305.712 100.563 305.808 100.297 305.808ZM101.001 307.232V316H99.5445V307.232H101.001ZM105.188 304.16V316H103.732V304.16H105.188ZM115.92 311.28C115.92 311.557 115.904 311.851 115.872 312.16H108.864C108.917 313.024 109.21 313.701 109.744 314.192C110.288 314.672 110.944 314.912 111.712 314.912C112.341 314.912 112.864 314.768 113.28 314.48C113.706 314.181 114.005 313.787 114.176 313.296H115.744C115.509 314.139 115.04 314.827 114.336 315.36C113.632 315.883 112.757 316.144 111.712 316.144C110.88 316.144 110.133 315.957 109.472 315.584C108.821 315.211 108.309 314.683 107.936 314C107.562 313.307 107.376 312.507 107.376 311.6C107.376 310.693 107.557 309.899 107.92 309.216C108.282 308.533 108.789 308.011 109.44 307.648C110.101 307.275 110.858 307.088 111.712 307.088C112.544 307.088 113.28 307.269 113.92 307.632C114.56 307.995 115.05 308.496 115.392 309.136C115.744 309.765 115.92 310.48 115.92 311.28ZM114.416 310.976C114.416 310.421 114.293 309.947 114.048 309.552C113.802 309.147 113.466 308.843 113.04 308.64C112.624 308.427 112.16 308.32 111.648 308.32C110.912 308.32 110.282 308.555 109.76 309.024C109.248 309.493 108.954 310.144 108.88 310.976H114.416ZM121.195 316.144C120.523 316.144 119.921 316.032 119.387 315.808C118.854 315.573 118.433 315.253 118.123 314.848C117.814 314.432 117.643 313.957 117.611 313.424H119.115C119.158 313.861 119.361 314.219 119.723 314.496C120.097 314.773 120.582 314.912 121.179 314.912C121.734 314.912 122.171 314.789 122.491 314.544C122.811 314.299 122.971 313.989 122.971 313.616C122.971 313.232 122.801 312.949 122.459 312.768C122.118 312.576 121.59 312.389 120.875 312.208C120.225 312.037 119.691 311.867 119.275 311.696C118.87 311.515 118.518 311.253 118.219 310.912C117.931 310.56 117.787 310.101 117.787 309.536C117.787 309.088 117.921 308.677 118.187 308.304C118.454 307.931 118.833 307.637 119.323 307.424C119.814 307.2 120.374 307.088 121.003 307.088C121.974 307.088 122.758 307.333 123.355 307.824C123.953 308.315 124.273 308.987 124.315 309.84H122.859C122.827 309.381 122.641 309.013 122.299 308.736C121.969 308.459 121.521 308.32 120.955 308.32C120.433 308.32 120.017 308.432 119.707 308.656C119.398 308.88 119.243 309.173 119.243 309.536C119.243 309.824 119.334 310.064 119.515 310.256C119.707 310.437 119.942 310.587 120.219 310.704C120.507 310.811 120.902 310.933 121.403 311.072C122.033 311.243 122.545 311.413 122.939 311.584C123.334 311.744 123.67 311.989 123.947 312.32C124.235 312.651 124.385 313.083 124.395 313.616C124.395 314.096 124.262 314.528 123.995 314.912C123.729 315.296 123.35 315.6 122.859 315.824C122.379 316.037 121.825 316.144 121.195 316.144Z" fill="black"/>
<rect x="150" y="298" width="24" height="24" rx="12" fill="#2E5CB2"/>
<rect x="157" y="305" width="10" height="10" rx="5" fill="#FCFCFC"/>
<path d="M193.536 304.848V306.032H188.688V309.792H192.624V310.976H188.688V316H187.232V304.848H193.536ZM199.369 316.144C198.547 316.144 197.801 315.957 197.129 315.584C196.467 315.211 195.945 314.683 195.561 314C195.187 313.307 195.001 312.507 195.001 311.6C195.001 310.704 195.193 309.915 195.577 309.232C195.971 308.539 196.505 308.011 197.177 307.648C197.849 307.275 198.601 307.088 199.433 307.088C200.265 307.088 201.017 307.275 201.689 307.648C202.361 308.011 202.889 308.533 203.273 309.216C203.667 309.899 203.865 310.693 203.865 311.6C203.865 312.507 203.662 313.307 203.257 314C202.862 314.683 202.323 315.211 201.641 315.584C200.958 315.957 200.201 316.144 199.369 316.144ZM199.369 314.864C199.891 314.864 200.382 314.741 200.841 314.496C201.299 314.251 201.667 313.883 201.945 313.392C202.233 312.901 202.377 312.304 202.377 311.6C202.377 310.896 202.238 310.299 201.961 309.808C201.683 309.317 201.321 308.955 200.873 308.72C200.425 308.475 199.939 308.352 199.417 308.352C198.883 308.352 198.393 308.475 197.945 308.72C197.507 308.955 197.155 309.317 196.889 309.808C196.622 310.299 196.489 310.896 196.489 311.6C196.489 312.315 196.617 312.917 196.873 313.408C197.139 313.899 197.491 314.267 197.929 314.512C198.366 314.747 198.846 314.864 199.369 314.864ZM207.485 304.16V316H206.029V304.16H207.485ZM209.672 311.584C209.672 310.688 209.854 309.904 210.216 309.232C210.579 308.549 211.075 308.021 211.704 307.648C212.344 307.275 213.059 307.088 213.848 307.088C214.531 307.088 215.166 307.248 215.752 307.568C216.339 307.877 216.787 308.288 217.096 308.8V304.16H218.568V316H217.096V314.352C216.808 314.875 216.382 315.307 215.816 315.648C215.251 315.979 214.59 316.144 213.832 316.144C213.054 316.144 212.344 315.952 211.704 315.568C211.075 315.184 210.579 314.645 210.216 313.952C209.854 313.259 209.672 312.469 209.672 311.584ZM217.096 311.6C217.096 310.939 216.963 310.363 216.696 309.872C216.43 309.381 216.067 309.008 215.608 308.752C215.16 308.485 214.664 308.352 214.12 308.352C213.576 308.352 213.08 308.48 212.632 308.736C212.184 308.992 211.827 309.365 211.56 309.856C211.294 310.347 211.16 310.923 211.16 311.584C211.16 312.256 211.294 312.843 211.56 313.344C211.827 313.835 212.184 314.213 212.632 314.48C213.08 314.736 213.576 314.864 214.12 314.864C214.664 314.864 215.16 314.736 215.608 314.48C216.067 314.213 216.43 313.835 216.696 313.344C216.963 312.843 217.096 312.261 217.096 311.6ZM229.279 311.28C229.279 311.557 229.263 311.851 229.231 312.16H222.223C222.276 313.024 222.57 313.701 223.103 314.192C223.647 314.672 224.303 314.912 225.071 314.912C225.7 314.912 226.223 314.768 226.639 314.48C227.066 314.181 227.364 313.787 227.535 313.296H229.103C228.868 314.139 228.399 314.827 227.695 315.36C226.991 315.883 226.116 316.144 225.071 316.144C224.239 316.144 223.492 315.957 222.831 315.584C222.18 315.211 221.668 314.683 221.295 314C220.922 313.307 220.735 312.507 220.735 311.6C220.735 310.693 220.916 309.899 221.279 309.216C221.642 308.533 222.148 308.011 222.799 307.648C223.46 307.275 224.218 307.088 225.071 307.088C225.903 307.088 226.639 307.269 227.279 307.632C227.919 307.995 228.41 308.496 228.751 309.136C229.103 309.765 229.279 310.48 229.279 311.28ZM227.775 310.976C227.775 310.421 227.652 309.947 227.407 309.552C227.162 309.147 226.826 308.843 226.399 308.64C225.983 308.427 225.519 308.32 225.007 308.32C224.271 308.32 223.642 308.555 223.119 309.024C222.607 309.493 222.314 310.144 222.239 310.976H227.775ZM232.907 308.656C233.163 308.155 233.525 307.765 233.995 307.488C234.475 307.211 235.056 307.072 235.739 307.072V308.576H235.355C233.723 308.576 232.907 309.461 232.907 311.232V316H231.451V307.232H232.907V308.656Z" fill="black"/>
<rect x="261" y="298" width="24" height="24" rx="12" fill="#D9DBE9"/>
<path d="M309.544 304.928V316H308.088V307.744L304.408 316H303.384L299.688 307.728V316H298.232V304.928H299.8L303.896 314.08L307.992 304.928H309.544ZM320.263 311.28C320.263 311.557 320.247 311.851 320.215 312.16H313.207C313.261 313.024 313.554 313.701 314.087 314.192C314.631 314.672 315.287 314.912 316.055 314.912C316.685 314.912 317.207 314.768 317.623 314.48C318.05 314.181 318.349 313.787 318.519 313.296H320.087C319.853 314.139 319.383 314.827 318.679 315.36C317.975 315.883 317.101 316.144 316.055 316.144C315.223 316.144 314.477 315.957 313.815 315.584C313.165 315.211 312.653 314.683 312.279 314C311.906 313.307 311.719 312.507 311.719 311.6C311.719 310.693 311.901 309.899 312.263 309.216C312.626 308.533 313.133 308.011 313.783 307.648C314.445 307.275 315.202 307.088 316.055 307.088C316.887 307.088 317.623 307.269 318.263 307.632C318.903 307.995 319.394 308.496 319.735 309.136C320.087 309.765 320.263 310.48 320.263 311.28ZM318.759 310.976C318.759 310.421 318.637 309.947 318.391 309.552C318.146 309.147 317.81 308.843 317.383 308.64C316.967 308.427 316.503 308.32 315.991 308.32C315.255 308.32 314.626 308.555 314.103 309.024C313.591 309.493 313.298 310.144 313.223 310.976H318.759ZM332.979 307.072C333.662 307.072 334.27 307.216 334.803 307.504C335.336 307.781 335.758 308.203 336.067 308.768C336.376 309.333 336.531 310.021 336.531 310.832V316H335.091V311.04C335.091 310.165 334.872 309.499 334.435 309.04C334.008 308.571 333.427 308.336 332.691 308.336C331.934 308.336 331.331 308.581 330.883 309.072C330.435 309.552 330.211 310.251 330.211 311.168V316H328.771V311.04C328.771 310.165 328.552 309.499 328.115 309.04C327.688 308.571 327.107 308.336 326.371 308.336C325.614 308.336 325.011 308.581 324.563 309.072C324.115 309.552 323.891 310.251 323.891 311.168V316H322.435V307.232H323.891V308.496C324.179 308.037 324.563 307.685 325.043 307.44C325.534 307.195 326.072 307.072 326.659 307.072C327.395 307.072 328.046 307.237 328.611 307.568C329.176 307.899 329.598 308.384 329.875 309.024C330.12 308.405 330.526 307.925 331.091 307.584C331.656 307.243 332.286 307.072 332.979 307.072ZM342.994 316.144C342.172 316.144 341.426 315.957 340.754 315.584C340.092 315.211 339.57 314.683 339.186 314C338.812 313.307 338.626 312.507 338.626 311.6C338.626 310.704 338.818 309.915 339.202 309.232C339.596 308.539 340.13 308.011 340.802 307.648C341.474 307.275 342.226 307.088 343.058 307.088C343.89 307.088 344.642 307.275 345.314 307.648C345.986 308.011 346.514 308.533 346.898 309.216C347.292 309.899 347.49 310.693 347.49 311.6C347.49 312.507 347.287 313.307 346.882 314C346.487 314.683 345.948 315.211 345.266 315.584C344.583 315.957 343.826 316.144 342.994 316.144ZM342.994 314.864C343.516 314.864 344.007 314.741 344.466 314.496C344.924 314.251 345.292 313.883 345.57 313.392C345.858 312.901 346.002 312.304 346.002 311.6C346.002 310.896 345.863 310.299 345.586 309.808C345.308 309.317 344.946 308.955 344.498 308.72C344.05 308.475 343.564 308.352 343.042 308.352C342.508 308.352 342.018 308.475 341.57 308.72C341.132 308.955 340.78 309.317 340.514 309.808C340.247 310.299 340.114 310.896 340.114 311.6C340.114 312.315 340.242 312.917 340.498 313.408C340.764 313.899 341.116 314.267 341.554 314.512C341.991 314.747 342.471 314.864 342.994 314.864Z" fill="black"/>
<rect x="504" y="348" width="176" height="48" rx="12" fill="#2E5CB2"/>
<path d="M567.765 378.112C566.986 378.112 566.282 377.979 565.653 377.712C565.034 377.445 564.543 377.061 564.181 376.56C563.818 376.059 563.631 375.467 563.621 374.784H566.021C566.053 375.243 566.213 375.605 566.501 375.872C566.799 376.139 567.205 376.272 567.717 376.272C568.239 376.272 568.65 376.149 568.949 375.904C569.247 375.648 569.397 375.317 569.397 374.912C569.397 374.581 569.295 374.309 569.093 374.096C568.89 373.883 568.634 373.717 568.325 373.6C568.026 373.472 567.61 373.333 567.077 373.184C566.351 372.971 565.759 372.763 565.301 372.56C564.853 372.347 564.463 372.032 564.133 371.616C563.813 371.189 563.653 370.624 563.653 369.92C563.653 369.259 563.818 368.683 564.149 368.192C564.479 367.701 564.943 367.328 565.541 367.072C566.138 366.805 566.821 366.672 567.589 366.672C568.741 366.672 569.674 366.955 570.389 367.52C571.114 368.075 571.514 368.853 571.589 369.856H569.125C569.103 369.472 568.938 369.157 568.629 368.912C568.33 368.656 567.93 368.528 567.429 368.528C566.991 368.528 566.639 368.64 566.373 368.864C566.117 369.088 565.989 369.413 565.989 369.84C565.989 370.139 566.085 370.389 566.277 370.592C566.479 370.784 566.725 370.944 567.013 371.072C567.311 371.189 567.727 371.328 568.261 371.488C568.986 371.701 569.578 371.915 570.037 372.128C570.495 372.341 570.89 372.661 571.221 373.088C571.551 373.515 571.717 374.075 571.717 374.768C571.717 375.365 571.562 375.92 571.253 376.432C570.943 376.944 570.49 377.355 569.893 377.664C569.295 377.963 568.586 378.112 567.765 378.112ZM582.149 373.376C582.149 373.696 582.127 373.984 582.085 374.24H575.605C575.658 374.88 575.882 375.381 576.277 375.744C576.671 376.107 577.157 376.288 577.733 376.288C578.565 376.288 579.157 375.931 579.509 375.216H581.925C581.669 376.069 581.178 376.773 580.453 377.328C579.727 377.872 578.837 378.144 577.781 378.144C576.927 378.144 576.159 377.957 575.477 377.584C574.805 377.2 574.277 376.661 573.893 375.968C573.519 375.275 573.333 374.475 573.333 373.568C573.333 372.651 573.519 371.845 573.893 371.152C574.266 370.459 574.789 369.925 575.461 369.552C576.133 369.179 576.906 368.992 577.781 368.992C578.623 368.992 579.375 369.173 580.037 369.536C580.709 369.899 581.226 370.416 581.589 371.088C581.962 371.749 582.149 372.512 582.149 373.376ZM579.829 372.736C579.818 372.16 579.61 371.701 579.205 371.36C578.799 371.008 578.303 370.832 577.717 370.832C577.162 370.832 576.693 371.003 576.309 371.344C575.935 371.675 575.706 372.139 575.621 372.736H579.829ZM583.458 373.536C583.458 372.64 583.634 371.845 583.986 371.152C584.348 370.459 584.834 369.925 585.442 369.552C586.06 369.179 586.748 368.992 587.506 368.992C588.167 368.992 588.743 369.125 589.234 369.392C589.735 369.659 590.135 369.995 590.434 370.4V369.136H592.69V378H590.434V376.704C590.146 377.12 589.746 377.467 589.234 377.744C588.732 378.011 588.151 378.144 587.49 378.144C586.743 378.144 586.06 377.952 585.442 377.568C584.834 377.184 584.348 376.645 583.986 375.952C583.634 375.248 583.458 374.443 583.458 373.536ZM590.434 373.568C590.434 373.024 590.327 372.56 590.114 372.176C589.9 371.781 589.612 371.483 589.25 371.28C588.887 371.067 588.498 370.96 588.082 370.96C587.666 370.96 587.282 371.061 586.93 371.264C586.578 371.467 586.29 371.765 586.066 372.16C585.852 372.544 585.746 373.003 585.746 373.536C585.746 374.069 585.852 374.539 586.066 374.944C586.29 375.339 586.578 375.643 586.93 375.856C587.292 376.069 587.676 376.176 588.082 376.176C588.498 376.176 588.887 376.075 589.25 375.872C589.612 375.659 589.9 375.36 590.114 374.976C590.327 374.581 590.434 374.112 590.434 373.568ZM597.367 370.512C597.655 370.043 598.029 369.675 598.487 369.408C598.957 369.141 599.49 369.008 600.087 369.008V371.36H599.495C598.791 371.36 598.258 371.525 597.895 371.856C597.543 372.187 597.367 372.763 597.367 373.584V378H595.127V369.136H597.367V370.512ZM601.27 373.568C601.27 372.651 601.457 371.851 601.83 371.168C602.204 370.475 602.721 369.941 603.382 369.568C604.044 369.184 604.801 368.992 605.654 368.992C606.753 368.992 607.66 369.269 608.374 369.824C609.1 370.368 609.585 371.136 609.83 372.128H607.414C607.286 371.744 607.068 371.445 606.758 371.232C606.46 371.008 606.086 370.896 605.638 370.896C604.998 370.896 604.492 371.131 604.118 371.6C603.745 372.059 603.558 372.715 603.558 373.568C603.558 374.411 603.745 375.067 604.118 375.536C604.492 375.995 604.998 376.224 605.638 376.224C606.545 376.224 607.137 375.819 607.414 375.008H609.83C609.585 375.968 609.1 376.731 608.374 377.296C607.649 377.861 606.742 378.144 605.654 378.144C604.801 378.144 604.044 377.957 603.382 377.584C602.721 377.2 602.204 376.667 601.83 375.984C601.457 375.291 601.27 374.485 601.27 373.568ZM616.713 369.008C617.385 369.008 617.983 369.157 618.505 369.456C619.028 369.744 619.433 370.176 619.721 370.752C620.02 371.317 620.169 372 620.169 372.8V378H617.929V373.104C617.929 372.4 617.753 371.861 617.401 371.488C617.049 371.104 616.569 370.912 615.961 370.912C615.343 370.912 614.852 371.104 614.489 371.488C614.137 371.861 613.961 372.4 613.961 373.104V378H611.721V366.16H613.961V370.24C614.249 369.856 614.633 369.557 615.113 369.344C615.593 369.12 616.127 369.008 616.713 369.008Z" fill="#FCFCFC"/>
</g>
<defs>
<filter id="filter0_d_8507_85924" x="0" y="0" width="734" height="466" filterUnits="userSpaceOnUse" color-interpolation-filters="sRGB">
<feFlood flood-opacity="0" result="BackgroundImageFix"/>
<feColorMatrix in="SourceAlpha" type="matrix" values="0 0 0 0 0 0 0 0 0 0 0 0 0 0 0 0 0 0 127 0" result="hardAlpha"/>
<feOffset dy="16"/>
<feGaussianBlur stdDeviation="15"/>
<feComposite in2="hardAlpha" operator="out"/>
<feColorMatrix type="matrix" values="0 0 0 0 0.360784 0 0 0 0 0.360784 0 0 0 0 0.360784 0 0 0 0.16 0"/>
<feBlend mode="normal" in2="BackgroundImageFix" result="effect1_dropShadow_8507_85924"/>
<feBlend mode="normal" in="SourceGraphic" in2="effect1_dropShadow_8507_85924" result="shape"/>
</filter>
<clipPath id="clip0_8507_85924">
<rect width="416" height="96" fill="white" transform="translate(54 132)"/>
</clipPath>
</defs>
</svg>
